<?xml version="1.0" encoding="UTF-8"?>
<svg width="142px" height="142px" viewBox="0 0 142 142" version="1.1" xmlns="http://www.w3.org/2000/svg" xmlns:xlink="http://www.w3.org/1999/xlink">
    <title>Account</title>
    <g id="Redesigns" stroke="none" stroke-width="1" fill="none" fill-rule="evenodd">
        <g id="Artboard" transform="translate(-5974.000000, -5576.000000)">
            <g id="Account" transform="translate(5974.000000, 5576.000000)">
                <rect id="Rectangle" fill="#FFFFFF" x="0" y="0" width="142" height="142"></rect>
                <path d="M82,76.447876 C83.5187831,76.447876 84.8937831,77.0634844 85.8890873,78.0587887 C86.8843915,79.0540929 87.5,80.4290929 87.5,81.947876 L87.5,81.947876 L87.5,91.4992965 L86.6648559,91.498329 L57.1176471,91.447876 C56.8420878,91.447876 56.5705376,91.4650496 56.3040051,91.4983602 L56.3040051,91.4983602 L55.4990498,91.4992949 L55.5,81.947876 C55.5,80.4290929 56.1156085,79.0540929 57.1109127,78.0587887 C58.1062169,77.0634844 59.4812169,76.447876 61,76.447876 L61,76.447876 Z M72.5,51.447876 C75.2614237,51.447876 77.7614237,52.5671641 79.5710678,54.3768082 C81.3807119,56.1864522 82.5,58.6864522 82.5,61.447876 C82.5,64.2092997 81.3807119,66.7092997 79.5710678,68.5189438 C77.7614237,70.3285879 75.2614237,71.447876 72.5,71.447876 C69.7385763,71.447876 67.2385763,70.3285879 65.4289322,68.5189438 C63.6192881,66.7092997 62.5,64.2092997 62.5,61.447876 C62.5,58.6864522 63.6192881,56.1864522 65.4289322,54.3768082 C67.2385763,52.5671641 69.7385763,51.447876 72.5,51.447876 Z" id="Account-Icon-Copy" stroke="#000000" fill="#000000"></path>
            </g>
        </g>
    </g>
</svg>