<svg width="389" height="436" viewBox="0 0 389 436" fill="none" xmlns="http://www.w3.org/2000/svg">
<path d="M231.341 223.038L231.347 223.045L237.433 229.131C239.399 231.092 242.063 232.194 244.84 232.194C247.617 232.194 250.281 231.091 252.247 229.129L267.735 213.642C269.123 212.255 271.005 211.475 272.967 211.475C274.93 211.475 276.812 212.255 278.199 213.642C279.587 215.03 280.367 216.912 280.367 218.874C280.367 220.837 279.587 222.719 278.199 224.106L262.71 239.596L262.71 239.596C258.662 243.639 253.361 246.189 247.676 246.829C242.473 247.414 237.23 246.367 232.665 243.853C230.909 252.386 226.341 260.102 219.67 265.749C212.631 271.708 203.708 274.978 194.485 274.978C185.263 274.977 176.339 271.707 169.301 265.748C162.628 260.099 158.058 252.38 156.305 243.842C151.732 246.324 146.497 247.352 141.303 246.768C135.63 246.131 130.335 243.608 126.267 239.603L126.261 239.597L110.773 224.106C110.773 224.106 110.773 224.106 110.773 224.106C109.385 222.719 108.605 220.837 108.605 218.874C108.605 216.912 109.385 215.03 110.773 213.642C112.16 212.255 114.042 211.475 116.005 211.475C117.967 211.475 119.849 212.255 121.237 213.642L136.725 229.13L231.341 223.038ZM231.341 223.038L231.336 223.033L231.335 223.032L201.886 193.582M231.341 223.038L201.886 193.582M201.886 193.582V186.755C203.016 186.01 204.025 185.094 204.877 184.039L204.881 184.033L204.886 184.027L223.177 160.642L223.177 160.642C224.701 158.693 225.647 156.354 225.907 153.893C226.166 151.431 225.729 148.947 224.644 146.722C223.559 144.497 221.871 142.622 219.772 141.311C217.673 139.999 215.248 139.304 212.773 139.304C212.773 139.304 212.773 139.304 212.773 139.304H176.199L201.886 193.582ZM165.797 160.642C164.272 158.693 163.326 156.354 163.066 153.893C162.806 151.432 163.243 148.947 164.328 146.722C165.412 144.497 167.1 142.622 169.199 141.311C171.298 139.999 173.724 139.304 176.198 139.304L165.797 160.642ZM165.797 160.642L184.086 184.027L184.091 184.033L184.095 184.039C184.947 185.094 185.956 186.01 187.086 186.755V193.582L157.638 223.031L157.637 223.033L157.631 223.038L157.625 223.045L151.539 229.13L165.797 160.642ZM144.132 232.192C146.909 232.192 149.572 231.092 151.538 229.131L144.132 232.192ZM144.132 232.192C141.356 232.192 138.692 231.092 136.726 229.131L144.132 232.192ZM194.486 260.178C188.063 260.17 181.905 257.615 177.364 253.073C172.822 248.531 170.267 242.373 170.259 235.95V231.339L194.486 207.112L218.712 231.339V235.95C218.705 242.373 216.15 248.531 211.608 253.073C207.066 257.615 200.909 260.17 194.486 260.178Z" fill="#7D7D80" stroke="#7D7D80" stroke-width="2"/>
<path d="M146.418 128.67V128.669V119.626V118.487L145.288 118.635L145.418 119.626C145.288 118.635 145.288 118.635 145.287 118.635L145.286 118.635L145.283 118.636L145.274 118.637L145.243 118.641C145.216 118.645 145.178 118.651 145.129 118.658C145.032 118.673 144.891 118.697 144.709 118.729C144.344 118.795 143.815 118.901 143.14 119.06C141.791 119.379 139.859 119.915 137.504 120.787C132.794 122.531 126.385 125.618 119.542 130.998L119.033 131.398L119.19 132.026C119.936 135.014 121.657 137.668 124.081 139.567C126.505 141.466 129.494 142.502 132.573 142.511L132.577 142.511C136.247 142.507 139.765 141.047 142.36 138.452C144.954 135.858 146.414 132.34 146.418 128.67Z" fill="#7D7D80" stroke="#7D7D80" stroke-width="2"/>
<path d="M269.781 132.026L269.938 131.398L269.429 130.998C262.587 125.618 256.178 122.531 251.467 120.787C249.112 119.915 247.181 119.379 245.831 119.06C245.156 118.901 244.627 118.795 244.262 118.729C244.08 118.697 243.939 118.673 243.842 118.658C243.793 118.651 243.755 118.645 243.729 118.641L243.697 118.637L243.688 118.636L243.685 118.635L243.684 118.635C243.683 118.635 243.683 118.635 243.553 119.626L243.683 118.635L242.553 118.487V119.626L242.553 128.669L242.553 128.67C242.557 132.34 244.017 135.858 246.612 138.453C249.207 141.047 252.725 142.507 256.394 142.511L256.398 142.511C259.478 142.502 262.466 141.466 264.89 139.567C267.315 137.668 269.036 135.014 269.781 132.026ZM243.422 120.618C243.422 120.618 243.422 120.618 243.422 120.618L243.422 120.618Z" fill="#7D7D80" stroke="#7D7D80" stroke-width="2"/>
<path d="M255 366.67L255.001 366.671L272.865 380.682C337.634 324.312 359.937 254.963 367.495 218.037C370.124 205.185 368.684 192.55 364.735 179.938C355.579 151.161 344.984 122.862 332.989 95.1487L332.984 95.1387C332.288 93.5112 332.094 91.713 332.425 89.9742C332.756 88.2354 333.599 86.6349 334.845 85.3774L334.846 85.3764C341.602 78.5638 345.545 69.4556 345.886 59.8666C346.228 50.2775 342.945 40.9117 336.69 33.6352C330.436 26.3587 321.669 21.7058 312.138 20.6035C303.724 19.6305 295.259 21.4873 288.058 25.8274C290.76 28.0094 293.346 30.3329 295.805 32.7883L295.805 32.789C296.632 33.6152 297.288 34.5963 297.735 35.6761C298.183 36.7559 298.413 37.9133 298.413 39.0822C298.413 40.251 298.183 41.4084 297.735 42.4882C297.288 43.568 296.632 44.5491 295.805 45.3754L295.795 45.3851L295.786 45.3948C294.109 47.0339 291.857 47.9516 289.513 47.9516C287.168 47.9516 284.917 47.0339 283.24 45.3948L283.228 45.3826L283.215 45.3703C275.843 37.9586 267.074 32.0826 257.416 28.0823C247.757 24.0821 237.402 22.0369 226.948 22.0652L226.941 22.0652L162.032 22.0652H162.025C151.571 22.0369 141.215 24.0821 131.557 28.0824C121.899 32.0827 113.13 37.9587 105.757 45.3703L105.752 45.375C104.084 47.044 101.82 47.9816 99.4597 47.9816C97.0995 47.9816 94.8359 47.044 93.1669 45.375C91.498 43.7061 90.5604 41.4425 90.5604 39.0823C90.5604 36.722 91.498 34.4585 93.1669 32.7895L93.1679 32.7885C95.6274 30.3319 98.2142 28.0074 100.917 25.8245C93.7153 21.4698 85.2429 19.6023 76.8195 20.571C67.2799 21.668 58.5049 26.322 52.2456 33.6041C45.9864 40.8862 42.7033 50.2607 43.0517 59.8569C43.4 69.453 47.3542 78.5648 54.125 85.3739L54.1281 85.3771C55.374 86.6346 56.2165 88.2351 56.5479 89.974C56.8793 91.7128 56.6844 93.511 55.9883 95.1385L255 366.67ZM255 366.67C253.198 365.259 250.921 364.595 248.643 364.818C246.365 365.04 244.26 366.132 242.765 367.865L242.763 367.868M255 366.67L242.763 367.868M242.763 367.868L242.761 367.87M242.763 367.868L242.761 367.87M242.761 367.87L242.756 367.876M242.761 367.87L242.756 367.876M242.756 367.876L242.738 367.897M242.756 367.876L242.738 367.897M242.738 367.897L242.673 367.971M242.738 367.897L242.673 367.971M242.673 367.971C242.618 368.034 242.54 368.124 242.438 368.24M242.673 367.971L242.438 368.24M242.438 368.24C242.235 368.473 241.94 368.809 241.559 369.238M242.438 368.24L241.559 369.238M241.559 369.238C240.798 370.097 239.695 371.329 238.302 372.854M241.559 369.238L238.302 372.854M238.302 372.854C235.515 375.904 231.568 380.124 226.87 384.872M238.302 372.854L226.87 384.872M226.87 384.872C217.831 394.009 206.079 405.028 194.486 413.446M226.87 384.872L194.486 413.446M194.486 413.446C170.798 396.242 146.53 368.24 146.205 367.864C146.205 367.863 146.204 367.863 146.204 367.863L144.313 369.498M194.486 413.446L21.4781 218.037M144.313 369.498C143.238 368.25 141.724 367.465 140.086 367.305C138.447 367.144 136.81 367.622 135.514 368.638L116.03 383.919M144.313 369.498C144.58 369.806 170.045 399.217 194.486 416.523L144.313 369.498ZM116.03 383.919L117.658 382.022C117.138 381.576 116.621 381.129 116.107 380.682L114.487 381.952L116.03 383.919ZM116.03 383.919C49.494 326.821 26.7097 256.067 19.0288 218.538C16.6192 206.761 17.1788 194.57 20.6569 183.063M20.6569 183.063L23.0489 183.79C23.0491 183.79 23.0493 183.789 23.0496 183.788M20.6569 183.063L23.05 183.787C23.0498 183.787 23.0497 183.788 23.0496 183.788M20.6569 183.063L55.9883 95.1386C55.7767 95.6335 35.0875 144.18 23.0496 183.788M23.0496 183.788C19.6918 194.897 19.1518 206.667 21.4781 218.037M21.4781 218.037C21.4781 218.037 21.4781 218.037 21.478 218.037L19.0303 218.538L21.4781 218.037ZM382.955 178.615L380.563 179.342L382.955 178.615C372.966 145.753 357.259 107.111 351.538 93.3518C359.992 82.7305 364.31 69.3809 363.652 55.7867C362.97 41.681 356.981 28.3544 346.887 18.4784C336.792 8.6024 323.338 2.90685 309.22 2.53347C295.685 2.17548 282.5 6.73502 272.092 15.333C258.17 8.03728 242.673 4.23457 226.938 4.26507H162.034C146.301 4.23443 130.805 8.03631 116.885 15.3306C111.276 10.6771 104.804 7.16605 97.8334 5.00253C90.306 2.6663 82.3684 1.95463 74.5455 2.91455C64.5264 4.12277 55.0201 8.01665 47.0323 14.1843C39.0439 20.3524 32.8714 28.5653 29.1679 37.9539C25.4645 47.3425 24.3678 57.5577 25.9939 67.5184C27.5377 76.9742 31.4806 85.8668 37.4345 93.3513C31.714 107.111 16.0061 145.753 6.01757 178.615L6.01753 178.615C-2.95576 208.142 6.92779 239.442 16.8718 266.489C27.9763 296.805 43.6794 325.232 63.4298 350.772L63.4333 350.777C77.2168 368.516 92.9006 384.694 110.205 399.021C111.769 400.318 113.731 401.041 115.764 401.068C117.796 401.095 119.777 400.426 121.376 399.171C121.376 399.171 121.376 399.171 121.376 399.171L138.393 385.824C148.163 396.479 169.171 418.229 189.575 431.711C189.728 431.813 189.867 431.884 189.97 431.931C190.006 431.948 190.041 431.964 190.072 431.976C190.508 432.223 190.965 432.431 191.437 432.6C191.442 432.602 191.453 432.606 191.471 432.613L191.525 432.636L191.535 432.64C191.554 432.648 191.578 432.658 191.602 432.668C191.708 432.711 191.907 432.791 192.146 432.857C192.871 433.058 193.619 433.165 194.371 433.178L194.392 433.179H194.414H194.559H194.581L194.602 433.178C195.354 433.165 196.102 433.058 196.827 432.857C197.066 432.792 197.264 432.712 197.37 432.668L197.406 432.653L197.448 432.636L197.502 432.614C197.521 432.606 197.531 432.602 197.536 432.599C198.009 432.431 198.466 432.222 198.903 431.975C198.932 431.963 198.964 431.949 198.998 431.933C199.1 431.887 199.239 431.816 199.393 431.715L198.015 429.629L199.393 431.715C219.798 418.232 240.809 396.48 250.58 385.824L267.596 399.171C269.195 400.426 271.176 401.095 273.209 401.068C275.241 401.041 277.203 400.318 278.768 399.021L277.172 397.096L278.768 399.021C307.843 374.912 332.248 345.673 350.77 312.756L350.77 312.756C364.383 288.544 374.772 262.656 381.673 235.751L381.673 235.75C386.475 216.996 388.846 198 382.955 178.615Z" fill="#7D7D80" stroke="#7D7D80" stroke-width="5"/>
<path d="M184.749 117.828L184.749 117.826C188.358 109.362 190.215 100.255 190.207 91.0533V69.7416C190.207 67.3978 189.286 65.5721 187.859 64.3459C186.453 63.1375 184.612 62.5566 182.808 62.5554C181.004 62.5543 179.162 63.1329 177.756 64.3411C176.328 65.5672 175.407 67.3943 175.407 69.7416L175.407 91.0541L175.407 91.0563C175.432 102.431 171.797 113.513 165.039 122.663L165.038 122.665C164.462 123.448 164.046 124.336 163.814 125.28C163.582 126.224 163.538 127.204 163.684 128.164C163.831 129.125 164.165 130.047 164.669 130.879C165.172 131.71 165.834 132.434 166.617 133.01C168.897 134.687 171.162 134.911 173.26 134.091C175.273 133.304 177.019 131.601 178.49 129.663C181.261 126.009 183.354 121.098 184.535 118.328C184.61 118.153 184.681 117.985 184.749 117.828Z" fill="#7D7D80" stroke="#7D7D80" stroke-width="2"/>
<path d="M217.978 134.448H217.979C219.347 134.447 220.688 134.067 221.852 133.35C223.017 132.633 223.96 131.607 224.577 130.387C225.194 129.166 225.461 127.798 225.348 126.435C225.235 125.072 224.746 123.767 223.936 122.665L223.934 122.663C217.176 113.513 213.541 102.432 213.566 91.0567V91.0545V69.7416C213.566 67.3978 212.644 65.5721 211.218 64.3459C209.812 63.1375 207.971 62.5566 206.166 62.5554C204.362 62.5543 202.521 63.1329 201.114 64.3411C199.687 65.5672 198.766 67.3943 198.766 69.7416V91.053C198.738 103.725 202.269 116.15 208.955 126.913C209.096 127.141 209.241 127.378 209.389 127.62C210.216 128.975 211.158 130.519 212.316 131.764C213.715 133.269 215.523 134.448 217.978 134.448Z" fill="#7D7D80" stroke="#7D7D80" stroke-width="2"/>
<path d="M306.635 221.419L306.635 221.419L306.639 221.427C307.116 222.358 307.784 223.178 308.6 223.833C309.415 224.489 310.36 224.965 311.372 225.23C312.384 225.496 313.44 225.545 314.472 225.375C315.505 225.204 316.489 224.818 317.362 224.241L317.362 224.241L317.37 224.236C319.528 222.779 320.351 220.646 320.596 218.484C320.805 216.645 320.605 214.675 320.433 212.976C320.408 212.723 320.383 212.476 320.36 212.237L320.36 212.237C319.497 203.236 316.656 194.537 312.042 186.761C307.429 178.987 301.157 172.326 293.673 167.256C292.871 166.7 291.966 166.308 291.011 166.102C290.055 165.897 289.067 165.883 288.105 166.062C287.143 166.241 286.226 166.608 285.407 167.144C284.588 167.679 283.883 168.372 283.334 169.182C282.784 169.991 282.401 170.902 282.205 171.861C282.01 172.82 282.007 173.808 282.196 174.768C282.385 175.728 282.763 176.641 283.307 177.454C283.851 178.265 284.549 178.962 285.363 179.502C295.589 186.432 302.648 197.135 304.993 209.263C305.248 210.583 305.292 212.054 305.34 213.64C305.356 214.149 305.372 214.669 305.395 215.2C305.487 217.302 305.698 219.55 306.635 221.419Z" fill="#7D7D80" stroke="#7D7D80" stroke-width="2"/>
<path d="M69.0321 208.856L69.0321 208.856C70.3318 200.494 73.3337 192.487 77.8521 185.331C82.3697 178.177 88.3072 172.025 95.2973 167.257C96.0999 166.7 97.005 166.307 97.9604 166.102C98.9171 165.897 99.905 165.883 100.867 166.062C101.829 166.24 102.746 166.608 103.565 167.144C104.384 167.679 105.089 168.372 105.638 169.181C106.187 169.991 106.571 170.902 106.766 171.861C106.961 172.819 106.965 173.807 106.775 174.767C106.586 175.727 106.209 176.64 105.664 177.454C105.121 178.265 104.422 178.961 103.608 179.502C98.09 183.239 93.4371 188.117 89.9634 193.805C86.489 199.495 84.2751 205.863 83.4711 212.481L69.0321 208.856ZM69.0321 208.856L69.0316 208.86M69.0321 208.856L69.0316 208.86M69.0316 208.86C68.9731 209.244 68.9059 209.657 68.8352 210.091C68.5944 211.569 68.3132 213.295 68.2014 214.993C68.0572 217.182 68.1744 219.52 69.1257 221.419L69.1256 221.419M69.0316 208.86L69.1256 221.419M69.1256 221.419L69.1304 221.428M69.1256 221.419L69.1304 221.428M69.1304 221.428C69.6269 222.394 70.3285 223.24 71.186 223.906C72.0434 224.572 73.0361 225.043 74.0946 225.286C75.1531 225.529 76.2518 225.537 77.3139 225.311C78.376 225.084 79.3759 224.629 80.2435 223.976L80.2435 223.976M69.1304 221.428L80.2435 223.976M80.2435 223.976L80.2535 223.968M80.2435 223.976L80.2535 223.968M80.2535 223.968C82.2193 222.449 82.8804 220.354 83.1329 218.309M80.2535 223.968L83.1329 218.309M83.1329 218.309C83.2584 217.293 83.2876 216.249 83.3143 215.271M83.1329 218.309L83.3143 215.271M83.3143 215.271L83.3149 215.248M83.3143 215.271L83.3149 215.248M83.3149 215.248C83.3418 214.26 83.3669 213.341 83.4711 212.482L83.3149 215.248Z" fill="#7D7D80" stroke="#7D7D80" stroke-width="2"/>
</svg>
