<svg width="379" height="426" viewBox="0 0 379 426" fill="none" xmlns="http://www.w3.org/2000/svg">
<path d="M263.442 209.349L247.953 224.837C245.8 226.986 242.882 228.194 239.84 228.194C236.798 228.194 233.88 226.987 231.726 224.838L225.64 218.752L225.635 218.747L195.886 188.997V181.203C197.113 180.469 198.2 179.523 199.098 178.411L217.389 155.026C218.798 153.224 219.672 151.063 219.912 148.788C220.152 146.513 219.748 144.216 218.745 142.16C217.743 140.104 216.182 138.371 214.242 137.159C212.302 135.947 210.061 135.304 207.773 135.304H171.198C168.911 135.304 166.669 135.946 164.729 137.159C162.789 138.371 161.229 140.104 160.227 142.16C159.224 144.216 158.82 146.513 159.06 148.788C159.3 151.063 160.175 153.225 161.584 155.026L179.873 178.411C180.772 179.523 181.859 180.469 183.086 181.203V188.997L153.337 218.747L153.332 218.752L147.245 224.838C145.092 226.986 142.174 228.192 139.132 228.192C136.09 228.192 133.173 226.986 131.019 224.838L115.53 209.349C114.33 208.149 112.702 207.475 111.005 207.475C109.308 207.475 107.68 208.149 106.48 209.349C105.28 210.549 104.605 212.177 104.605 213.874C104.605 215.572 105.28 217.199 106.48 218.399L121.968 233.89C125.877 237.738 130.964 240.162 136.415 240.775C141.865 241.387 147.364 240.152 152.028 237.267C153.511 246.129 158.089 254.179 164.947 259.985C171.805 265.791 180.5 268.977 189.485 268.978C198.471 268.978 207.166 265.792 214.024 259.986C220.882 254.18 225.46 246.13 226.943 237.268C231.596 240.191 237.103 241.449 242.564 240.835C248.025 240.221 253.115 237.772 257.003 233.888L272.492 218.399C273.692 217.199 274.367 215.572 274.367 213.874C274.367 212.177 273.692 210.549 272.492 209.349C271.292 208.149 269.664 207.475 267.967 207.475C266.27 207.475 264.642 208.149 263.442 209.349ZM189.486 256.178C182.798 256.17 176.386 253.51 171.657 248.78C166.927 244.051 164.267 237.639 164.259 230.951V225.924L189.486 200.698L214.712 225.925V230.951C214.705 237.639 212.044 244.051 207.315 248.78C202.586 253.51 196.174 256.17 189.486 256.178Z" fill="black"/>
<path d="M127.576 136.511C130.981 136.507 134.245 135.153 136.652 132.745C139.06 130.338 140.414 127.074 140.418 123.669V114.626C140.418 114.626 128.659 116.17 115.16 126.784C115.852 129.556 117.449 132.018 119.698 133.78C121.947 135.542 124.719 136.503 127.576 136.511Z" fill="black"/>
<path d="M251.395 136.511C254.252 136.503 257.025 135.542 259.274 133.78C261.523 132.018 263.119 129.556 263.811 126.784C250.312 116.17 238.553 114.626 238.553 114.626V123.669C238.557 127.074 239.911 130.338 242.319 132.745C244.726 135.153 247.991 136.507 251.395 136.511Z" fill="black"/>
<path d="M375.563 174.342C365.255 140.429 348.813 100.284 343.653 87.9291C352.342 77.6074 356.807 64.3832 356.155 50.9075C355.504 37.4317 349.782 24.7004 340.138 15.2654C330.495 5.83048 317.641 0.389302 304.154 0.0325918C290.668 -0.324119 277.544 4.43 267.415 13.342C253.474 5.71592 237.832 1.73387 221.941 1.76507H157.032C141.141 1.73371 125.499 5.71564 111.557 13.3416C105.917 8.35456 99.2827 4.6218 92.0924 2.39018C84.902 0.158566 77.3199 -0.521053 69.8473 0.396274C60.2746 1.55019 51.1919 5.27033 43.5602 11.1631C35.9285 17.0558 30.0316 24.9019 26.4935 33.8713C22.9554 42.8407 21.9077 52.5996 23.4613 62.1156C25.0148 71.6316 29.1118 80.5507 35.3188 87.9291C30.1595 100.284 13.7173 140.429 3.40952 174.342C-5.29048 202.969 4.25082 233.516 14.2182 260.626C25.2346 290.703 40.8133 318.905 60.4074 344.243C74.0793 361.839 89.6362 377.886 106.8 392.096C107.925 393.029 109.336 393.549 110.797 393.568C112.259 393.588 113.683 393.106 114.833 392.204L133.677 377.424C142.595 387.269 164.667 410.562 185.958 424.629C186.036 424.68 186.124 424.696 186.203 424.743C186.55 424.947 186.915 425.117 187.293 425.251C187.468 425.315 187.634 425.399 187.812 425.448C188.334 425.592 188.872 425.669 189.414 425.679H189.559C190.101 425.669 190.639 425.592 191.161 425.448C191.338 425.399 191.504 425.315 191.679 425.251C192.058 425.117 192.423 424.947 192.77 424.743C192.849 424.695 192.937 424.68 193.015 424.629C214.305 410.562 236.377 387.269 245.296 377.424L264.139 392.204C265.289 393.106 266.714 393.588 268.175 393.568C269.636 393.549 271.047 393.029 272.172 392.096C301.012 368.183 325.219 339.181 343.591 306.53C357.097 282.509 367.404 256.824 374.251 230.13C379.007 211.555 381.259 193.086 375.563 174.342ZM364.944 213.538C357.263 251.067 334.479 321.821 267.943 378.92L248.458 363.638C247.162 362.623 245.525 362.146 243.886 362.306C242.247 362.466 240.733 363.251 239.658 364.498C239.393 364.806 213.952 394.202 189.486 411.523C165.045 394.217 139.58 364.806 139.313 364.498C138.238 363.25 136.724 362.465 135.086 362.305C133.447 362.144 131.81 362.622 130.514 363.638L111.03 378.919C44.494 321.821 21.7097 251.067 14.0288 213.538C11.6192 201.761 12.1788 189.57 15.6569 178.063C27.7397 138.307 48.4819 89.6414 48.6897 89.1555C49.1903 87.9852 49.3304 86.6923 49.0921 85.442C48.8538 84.1917 48.2481 83.0408 47.3522 82.1367C40.1378 74.8814 35.9245 65.1725 35.5533 54.9476C35.1821 44.7226 38.6803 34.7338 45.3497 26.9745C52.0191 19.2152 61.3692 14.2563 71.5339 13.0874C81.6985 11.9184 91.9302 14.6255 100.187 20.6683C96.5646 23.3865 93.1388 26.3568 89.9347 29.5573C88.7346 30.7574 88.0604 32.3851 88.0604 34.0823C88.0604 35.7795 88.7346 37.4072 89.9347 38.6073C91.1348 39.8074 92.7625 40.4816 94.4597 40.4816C96.1569 40.4816 97.7846 39.8074 98.9847 38.6073C106.59 30.9613 115.637 24.8995 125.6 20.7727C135.564 16.6459 146.247 14.536 157.032 14.5652H221.941C232.725 14.536 243.409 16.6458 253.372 20.7726C263.336 24.8994 272.382 30.9612 279.988 38.6072C281.197 39.7896 282.821 40.4516 284.513 40.4516C286.204 40.4516 287.828 39.7896 289.038 38.6072C289.632 38.0131 290.104 37.3076 290.426 36.5312C290.747 35.7548 290.913 34.9226 290.913 34.0822C290.913 33.2417 290.747 32.4095 290.426 31.6331C290.104 30.8567 289.632 30.1513 289.038 29.5572C285.834 26.3568 282.408 23.3864 278.785 20.6682C287.043 14.6406 297.269 11.9456 307.425 13.1201C317.581 14.2946 326.922 19.2524 333.586 27.0056C340.251 34.7589 343.749 44.7384 343.385 54.9557C343.021 65.1729 338.82 74.8779 331.621 82.1369C330.725 83.0411 330.119 84.1919 329.881 85.4422C329.643 86.6925 329.783 87.9854 330.283 89.1557C342.313 116.949 352.938 145.329 362.12 174.189C366.161 187.095 367.679 200.17 364.944 213.538Z" fill="black"/>
<path d="M162.209 127.204C170.298 133.155 176.537 117.788 178.83 112.434C182.385 104.094 184.215 95.1203 184.207 86.0541V64.7416C184.207 56.5016 171.407 56.4852 171.407 64.7416V86.0541C171.433 97.6439 167.729 108.934 160.843 118.257C160.345 118.934 159.986 119.703 159.785 120.519C159.584 121.335 159.546 122.183 159.673 123.013C159.8 123.844 160.089 124.642 160.524 125.361C160.959 126.08 161.532 126.706 162.209 127.204Z" fill="black"/>
<path d="M212.978 128.448C214.161 128.447 215.321 128.119 216.328 127.499C217.335 126.878 218.151 125.991 218.685 124.936C219.219 123.88 219.449 122.697 219.351 121.518C219.253 120.339 218.831 119.211 218.13 118.258C211.244 108.935 207.54 97.6443 207.566 86.0545V64.7416C207.566 56.5016 194.766 56.4852 194.766 64.7416V86.0541C194.738 98.539 198.217 110.781 204.805 121.386C206.735 124.496 208.801 128.448 212.978 128.448Z" fill="black"/>
<path d="M288.107 163.081C287.412 162.598 286.628 162.258 285.801 162.08C284.974 161.902 284.119 161.89 283.287 162.045C282.455 162.2 281.662 162.518 280.954 162.981C280.246 163.444 279.636 164.043 279.161 164.743C278.686 165.444 278.354 166.231 278.185 167.06C278.016 167.89 278.014 168.744 278.177 169.574C278.341 170.405 278.668 171.194 279.138 171.898C279.609 172.601 280.215 173.204 280.92 173.671C291.367 180.749 298.58 191.683 300.975 204.073C301.685 207.752 300.865 212.651 302.529 215.971C302.942 216.777 303.52 217.487 304.226 218.054C304.932 218.621 305.749 219.033 306.625 219.263C307.501 219.493 308.416 219.535 309.309 219.388C310.203 219.24 311.055 218.906 311.811 218.407C315.484 215.928 314.73 211.149 314.364 207.332C313.515 198.478 310.721 189.921 306.182 182.271C301.644 174.622 295.472 168.069 288.107 163.081Z" fill="black"/>
<path d="M90.8641 163.081C83.9856 167.772 78.1429 173.825 73.6976 180.865C69.2523 187.905 66.2989 195.783 65.0202 204.01C64.4893 207.502 63.3619 212.662 65.0197 215.971C65.4497 216.807 66.0571 217.539 66.7996 218.116C67.542 218.693 68.4015 219.101 69.3181 219.311C70.2346 219.521 71.1859 219.529 72.1055 219.333C73.0252 219.137 73.8909 218.742 74.6421 218.177C77.9695 215.606 77.0315 211.045 77.4784 207.361C78.2996 200.601 80.561 194.096 84.11 188.284C87.659 182.472 92.4131 177.489 98.0516 173.671C98.7569 173.203 99.3625 172.601 99.8333 171.897C100.304 171.194 100.631 170.404 100.794 169.574C100.958 168.744 100.955 167.889 100.786 167.06C100.617 166.231 100.286 165.443 99.8106 164.743C99.3353 164.043 98.726 163.444 98.0177 162.981C97.3094 162.517 96.5163 162.199 95.6843 162.045C94.8523 161.89 93.9979 161.902 93.1705 162.08C92.3431 162.258 91.5592 162.598 90.8641 163.081Z" fill="black"/>
</svg>
