<svg width="200" height="196" viewBox="0 0 200 196" fill="none" xmlns="http://www.w3.org/2000/svg">
<path fill-rule="evenodd" clip-rule="evenodd" d="M96.1002 12.5C98.0002 10.5 101.2 10.5 103.1 12.5L181.7 92.9C183.6 94.9 183.6 98.1 181.7 100.1L103.1 180.5C101.2 182.5 98.0002 182.5 96.1002 180.5L17.5002 100.1C15.6002 98.1 15.6002 94.9 17.5002 92.9L96.1002 12.5ZM98.8002 23.4L29.5002 95.1C29.0002 95.6 29.0002 96.4 29.5002 96.9L98.8002 168.7C99.3002 169.2 100 169.2 100.5 168.7L169.8 96.9C170.3 96.4 170.3 95.6 169.8 95.1L100.5 23.3C100 22.9 99.3002 22.9 98.8002 23.4Z" fill="black"/>
<path fill-rule="evenodd" clip-rule="evenodd" d="M140.3 96.6L132 88.3001C130.4 86.7001 130.4 84.2 132 82.6L132.6 82C134.2 80.4 136.7 80.4 138.3 82L149.1 92.8001C149.2 92.9001 149.3 93 149.4 93.1L150 93.7C151.6 95.3 151.6 97.8001 150 99.4001L131.5 117.9C129.9 119.5 127.4 119.5 125.8 117.9L125.2 117.3C123.6 115.7 123.6 113.2 125.2 111.6L140.3 96.6Z" fill="#FFB650"/>
<path fill-rule="evenodd" clip-rule="evenodd" d="M58.9 96.6L74 81.5C75.6 79.9 75.6 77.4 74 75.8L73.4 75.2C71.8 73.6 69.3 73.6 67.7 75.2L50.1 92.8C50 92.9 49.9 93 49.8 93.1L49.2 93.7C47.6 95.3 47.6 97.8 49.2 99.4L60.7 110.9C62.3 112.5 64.8 112.5 66.4 110.9L67 110.3C68.6 108.7 68.6 106.2 67 104.6L58.9 96.6Z" fill="#FFB650"/>
<path fill-rule="evenodd" clip-rule="evenodd" d="M72.7998 115.9L120.1 68.5999C121.7 66.9999 124.2 66.9999 125.8 68.5999L127.2 69.9999C128.8 71.5999 128.8 74.0999 127.2 75.6999L79.8998 123C78.2998 124.6 75.7998 124.6 74.1998 123L72.7998 121.6C71.2998 120 71.2998 117.4 72.7998 115.9Z" fill="#FFB650"/>
</svg>
