<?xml version="1.0" encoding="utf-8"?>
<!-- Generator: Adobe Illustrator 24.0.1, SVG Export Plug-In . SVG Version: 6.00 Build 0)  -->
<svg version="1.1" id="Layer_1" xmlns="http://www.w3.org/2000/svg" xmlns:xlink="http://www.w3.org/1999/xlink" x="0px" y="0px"
	 viewBox="0 0 200 196" style="enable-background:new 0 0 200 196;" xml:space="preserve">
<style type="text/css">
	.st0{fill-rule:evenodd;clip-rule:evenodd;}
</style>
<title>UX Development</title>
<desc>Created with Sketch.</desc>
<g>
	<g>
		<path class="st0" d="M96.1,12.5c1.9-2,5.1-2,7,0l78.6,80.4c1.9,2,1.9,5.2,0,7.2l-78.6,80.4c-1.9,2-5.1,2-7,0l-78.6-80.4
			c-1.9-2-1.9-5.2,0-7.2L96.1,12.5z M98.8,23.4L29.5,95.1c-0.5,0.5-0.5,1.3,0,1.8l69.3,71.8c0.5,0.5,1.2,0.5,1.7,0l69.3-71.8
			c0.5-0.5,0.5-1.3,0-1.8l-69.3-71.8C100,22.9,99.3,22.9,98.8,23.4z"/>
		<path class="st0" d="M140.3,96.6l-8.3-8.3c-1.6-1.6-1.6-4.1,0-5.7l0.6-0.6c1.6-1.6,4.1-1.6,5.7,0l10.8,10.8
			c0.1,0.1,0.2,0.2,0.3,0.3l0.6,0.6c1.6,1.6,1.6,4.1,0,5.7l-18.5,18.5c-1.6,1.6-4.1,1.6-5.7,0l-0.6-0.6c-1.6-1.6-1.6-4.1,0-5.7
			L140.3,96.6z"/>
		<path class="st0" d="M58.9,96.6L74,81.5c1.6-1.6,1.6-4.1,0-5.7l-0.6-0.6c-1.6-1.6-4.1-1.6-5.7,0L50.1,92.8
			c-0.1,0.1-0.2,0.2-0.3,0.3l-0.6,0.6c-1.6,1.6-1.6,4.1,0,5.7l11.5,11.5c1.6,1.6,4.1,1.6,5.7,0l0.6-0.6c1.6-1.6,1.6-4.1,0-5.7
			L58.9,96.6z"/>
		<path class="st0" d="M72.8,115.9l47.3-47.3c1.6-1.6,4.1-1.6,5.7,0l1.4,1.4c1.6,1.6,1.6,4.1,0,5.7L79.9,123c-1.6,1.6-4.1,1.6-5.7,0
			l-1.4-1.4C71.3,120,71.3,117.4,72.8,115.9z"/>
	</g>
</g>
</svg>
