<?xml version="1.0" encoding="UTF-8"?>
<svg width="142px" height="142px" viewBox="0 0 142 142" version="1.1" xmlns="http://www.w3.org/2000/svg" xmlns:xlink="http://www.w3.org/1999/xlink">
    <title>Grocery</title>
    <g id="Redesigns" stroke="none" stroke-width="1" fill="none" fill-rule="evenodd">
        <g id="Artboard" transform="translate(-5684.000000, -5670.000000)">
            <g id="Grocery" transform="translate(5684.000000, 5670.000000)">
                <rect id="Rectangle" fill="#FFFFFF" x="0" y="0" width="142" height="142"></rect>
                <path d="M71.2321412,50 L74.3940541,50.622088 L76.964483,52.1770661 L79.4401586,54.5512557 L81.0867414,57.55358 L81.7139996,59.8034487 L81.7139996,65.3096046 L89.5708008,65.3096046 L84.3632286,91 L56.7288207,91 L51.5708008,65.3096046 L59.6103408,65.3096046 L59.6103408,61.7425153 C59.6418899,60.6024727 59.8127845,59.5572746 60.1230246,58.606921 C60.4332647,57.6565674 61.1140231,56.3046789 62.1652998,54.5512557 L62.1652998,54.5512557 L64.4546108,52.1770661 L67.2955222,50.622088 L71.2321412,50 Z M71.2321412,55.9030635 L70.2420643,55.9030635 L68.1130124,56.2803797 L66.8118445,57.4031372 L65.8198339,58.9063553 L65.2916801,61.2730469 L65.2916801,64.757175 L76.1895352,64.757175 L76.1895352,60.3301192 L75.6964305,58.9063553 L75.1924485,57.8498699 L74.1750576,56.7737932 L73.0256886,56.2803797 L71.2321412,55.9030635 Z" id="Grocery-Icon-Copy" stroke="#000000" fill="#000000" stroke-linecap="square"></path>
            </g>
        </g>
    </g>
</svg>