<?xml version="1.0" encoding="UTF-8"?>
<svg width="575px" height="260px" viewBox="0 0 575 260" version="1.1" xmlns="http://www.w3.org/2000/svg" xmlns:xlink="http://www.w3.org/1999/xlink">
    <title>Icons</title>
    <g id="Case-Study-Assets" stroke="none" stroke-width="1" fill="none" fill-rule="evenodd">
        <g id="Custom-Preset" transform="translate(-2673.000000, -1500.000000)" fill="#000000">
            <g id="Icons" transform="translate(2673.000000, 1500.000000)">
                <text id="Calm" font-family="HelveticaNeue-Medium, Helvetica Neue" font-size="30" font-weight="400" line-spacing="30" letter-spacing="1.25">
                    <tspan x="86" y="47">Calm</tspan>
                </text>
                <text id="Healthy" font-family="HelveticaNeue-Medium, Helvetica Neue" font-size="30" font-weight="400" line-spacing="30" letter-spacing="1.25">
                    <tspan x="86" y="136">Healthy</tspan>
                </text>
                <text id="Active-Copy" font-family="HelveticaNeue-Medium, Helvetica Neue" font-size="30" font-weight="400" line-spacing="30" letter-spacing="1.25">
                    <tspan x="86" y="240">Active</tspan>
                </text>
                <text id="Persistence" font-family="HelveticaNeue-Medium, Helvetica Neue" font-size="30" font-weight="400" line-spacing="30" letter-spacing="1.25">
                    <tspan x="398" y="240">Persistent</tspan>
                </text>
                <text id="Zen" font-family="HelveticaNeue-Medium, Helvetica Neue" font-size="30" font-weight="400" line-spacing="31" letter-spacing="1.25">
                    <tspan x="399" y="137">Zen</tspan>
                </text>
                <text id="Peaceful" font-family="HelveticaNeue-Medium, Helvetica Neue" font-size="30" font-weight="400" line-spacing="30" letter-spacing="1.25">
                    <tspan x="398" y="48">Peaceful</tspan>
                </text>
                <g id="noun_Equanimity_2111327-Copy" transform="translate(313.000000, 0.000000)" fill-rule="nonzero">
                    <path d="M21.0898774,36.5046469 C21.0535827,36.4889518 21.016497,36.4751702 20.9787717,36.4633584 C19.1177178,35.8700513 17.0865077,36.2039606 15.5108951,37.3622191 C13.9352825,38.5204776 13.0042864,40.3641344 13.0047181,42.3252152 C12.9371869,43.9934089 13.5972754,45.6082517 14.8124073,46.7475526 C15.8020339,47.5845842 17.0621397,48.0294712 18.355567,47.9984837 C18.6460517,47.9979217 18.9362227,47.9792876 19.2244133,47.9426884 L41.8177504,47.9426884 C42.2126964,47.9406921 42.5768996,47.7282688 42.7743701,47.3847352 L46.0542094,47.8310978 C48.5442365,48.1712606 50.9882792,46.9482645 52.2175851,44.7469518 C53.4468911,42.545639 53.211657,39.813331 51.6243731,37.8566299 C50.0370891,35.8999289 47.4203018,35.1164495 45.0253709,35.8808552 L43.0032478,36.5314287 L43.0032478,32.3757929 L47.3130366,32.3757929 C48.6949173,32.3760749 49.9450566,31.5522609 50.4949631,30.2789743 C51.0448696,29.0056876 50.7895601,27.5260126 49.8451347,26.5128203 L45.1786968,19.6176341 C45.0997753,19.5024802 45.0003299,19.4029791 44.8853778,19.3241507 L39.1367707,15.3883485 C41.7666005,12.8699803 42.6054157,8.99749625 41.254975,5.60942207 C39.9045343,2.22134789 36.6367998,0 33.0031824,0 C29.369565,0 26.1018304,2.22134789 24.7513897,5.60942207 C23.4009491,8.99749625 24.2397643,12.8699803 26.8695941,15.3883485 L21.1676514,19.2817462 C21.0524334,19.3602514 20.9529331,19.4598075 20.8743324,19.5752296 L16.1634522,26.5150521 C15.2206843,27.528246 14.9662427,29.0066511 15.5156722,30.2789073 C16.0651017,31.5511634 17.3136899,32.3747994 18.6944393,32.3757929 L23.004228,32.3757929 L23.004228,37.3482722 L21.0898774,36.5046469 Z M19.1521946,45.7064118 C19.1020308,45.7064217 19.0519231,45.7097768 19.002202,45.716455 C18.0411682,45.909933 17.043977,45.6709653 16.2734468,45.0625338 C15.5429522,44.3476219 15.1605344,43.3474462 15.2268314,42.3252152 C15.2274177,40.1655168 16.9652427,38.4121271 19.1155297,38.401688 C19.502687,38.402114 19.8876256,38.4604077 20.257696,38.5746535 L36.5035664,45.7064118 L19.1521946,45.7064118 Z M45.6986713,38.0066571 C47.2247774,37.5181591 48.8930938,38.0165545 49.9052922,39.2633494 C50.9174905,40.5101444 51.0677145,42.2517713 50.2840785,43.6548211 C49.5004424,45.0578709 47.9423186,45.8369977 46.3553057,45.6193711 L39.8156263,44.7266459 L33.4403832,41.9279525 L45.6986713,38.0066571 Z M26.337398,8.94175672 C26.337398,5.24396792 29.32202,2.24631781 33.0037379,2.24631781 C36.6854558,2.24631781 39.6700779,5.24396792 39.6700779,8.94175672 C39.6700779,12.6395455 36.6854558,15.6371956 33.0037379,15.6371956 C29.3235432,15.6335049 26.3410727,12.6380157 26.337398,8.94175672 L26.337398,8.94175672 Z M17.4489421,28.8930488 C17.4482577,28.5611082 17.579425,28.2426031 17.8133713,28.008135 C17.862493,27.9589731 17.9067707,27.9051596 17.9455871,27.8474444 L22.5909149,21.0058217 L28.76839,16.7888111 C31.4094949,18.229052 34.5968699,18.229052 37.2379748,16.7888111 L43.4598921,21.0482262 L48.0618888,27.8463285 C48.1007378,27.9046767 48.1454113,27.9588928 48.1952156,28.008135 C48.5518812,28.3660551 48.6585153,28.9046372 48.4653225,29.3723766 C48.2721297,29.840116 47.8172245,30.1447334 47.3130366,30.1439814 L18.6944393,30.1439814 C18.0068255,30.1433647 17.4495573,29.583664 17.4489421,28.8930488 L17.4489421,28.8930488 Z M25.2263413,32.3757929 L40.7811345,32.3757929 L40.7811345,37.2411452 L30.3527567,40.5743579 L25.2263413,38.3235745 L25.2263413,32.3757929 Z" id="Shape"></path>
                    <path d="M36.0091884,25.5288347 L35.1548895,21.8831344 C35.0329697,21.3640671 34.5955802,21 34.0938525,21 L31.9061475,21 C31.4044198,21 30.9670303,21.3640671 30.8451105,21.8831344 L29.9908116,25.5288347 L23.3106541,24.5115385 L23,26.8214542 L30.6569678,27.9880782 C31.2119051,28.072947 31.7371729,27.6966171 31.8733319,27.1166101 L32.7604463,23.3332482 L33.2395537,23.3332482 L34.1266681,27.1166101 C34.2628271,27.6966171 34.7880949,28.072947 35.3430322,27.9880782 L43,26.8214542 L42.6893459,24.5115385 L36.0091884,25.5288347 Z" id="Path"></path>
                    <path d="M65.8833333,46 L53.6,46 L53.6,48.2105263 L64.7666667,48.2105263 L64.7666667,50.4210526 L2.23333333,50.4210526 L2.23333333,48.2105263 L13.4,48.2105263 L13.4,46 L1.11666667,46 C0.499948696,46 0,46.4948432 0,47.1052632 L0,51.5263158 C0,52.1367358 0.499948696,52.6315789 1.11666667,52.6315789 L28.5241333,52.6315789 L24.6917333,62.4938421 C24.2954983,63.5134644 24.4321019,64.660838 25.0569452,65.5613633 C25.6817885,66.4618887 26.7146812,67 27.8184,67 L39.1816,67 C40.2853188,67 41.3182115,66.4618887 41.9430548,65.5613633 C42.5678981,64.660838 42.7045017,63.5134644 42.3082667,62.4938421 L38.4758667,52.6315789 L65.8833333,52.6315789 C66.5000513,52.6315789 67,52.1367358 67,51.5263158 L67,47.1052632 C67,46.4948432 66.5000513,46 65.8833333,46 Z M40.22345,63.2874211 C40.3555047,63.6272343 40.3100114,64.0096205 40.1018181,64.3097763 C39.8936248,64.6099321 39.5494404,64.7893508 39.1816,64.7894737 L27.8184,64.7894737 C27.4505596,64.7893508 27.1063752,64.6099321 26.8981819,64.3097763 C26.6899886,64.0096205 26.6444953,63.6272343 26.77655,63.2874211 L30.91715,52.6315789 L36.08285,52.6315789 L40.22345,63.2874211 Z" id="Shape"></path>
                    <rect id="Rectangle" x="6" y="1" width="2" height="2"></rect>
                    <rect id="Rectangle" x="56" y="0" width="2" height="2"></rect>
                    <rect id="Rectangle" x="63" y="15" width="2" height="2"></rect>
                    <rect id="Rectangle" x="16" y="15" width="2" height="2"></rect>
                    <rect id="Rectangle" x="2" y="21" width="2" height="2"></rect>
                    <rect id="Rectangle" x="49" y="12" width="2" height="2"></rect>
                    <rect id="Rectangle" x="63" y="34" width="2" height="2"></rect>
                    <rect id="Rectangle" x="3" y="36" width="2" height="2"></rect>
                </g>
                <g id="noun_Calm-sea_1616963" transform="translate(1.000000, 0.000000)" fill-rule="nonzero">
                    <g id="Group">
                        <path d="M22.4353358,19.9123201 C25.5169488,25.6367917 31.4930789,29.2067352 37.994303,29.2067352 C44.4955271,29.2067352 50.4716571,25.6367917 53.5532701,19.9123201 C43.3804137,22.7914404 32.6081922,22.7914404 22.4353358,19.9123201 L22.4353358,19.9123201 Z M28.6543372,23.6822455 C34.8421202,24.6660602 41.1464858,24.6660602 47.3342688,23.6822455 C41.8275496,27.9167301 34.1610563,27.9167301 28.6543372,23.6822455 L28.6543372,23.6822455 Z" id="Shape"></path>
                        <path d="M35.9190099,0.250923215 L35.9190099,19.9581823 C37.3020469,20.0103484 38.686559,20.0103484 40.069596,19.9581823 L40.069596,17.4173819 L46.5775311,10.9094456 L35.9190099,0.250923215 Z M38.267187,5.91956938 L43.2570632,10.9094456 L38.267187,15.8947347 L38.267187,5.91956938 Z" id="Shape"></path>
                        <path d="M66.4453125,35.47355 L66.4453125,33.1256688 L52.5359199,33.1256688 C51.2350084,33.1256318 49.9431478,32.90939 48.713137,32.4857813 L43.1047725,30.5548475 L37.4964071,32.4857812 C36.2663963,32.90939 34.9745357,33.1256318 33.6736242,33.1256687 L30.9256677,33.1256687 C29.6247562,33.1256318 28.3328955,32.90939 27.1028848,32.4857812 L21.4945194,30.5548475 L15.8861539,32.4857812 C14.6561429,32.9093901 13.3642819,33.1256319 12.0633701,33.1256688 L0.696910304,33.1256688 L0.696910304,35.47355 L12.0633701,35.47355 C13.6242796,35.4738072 15.174382,35.2146778 16.6503385,34.70675 L21.4945194,33.0385162 L26.3387011,34.70675 C27.8146571,35.2146776 29.3647589,35.473807 30.9256677,35.47355 L33.6736242,35.47355 C35.234533,35.473807 36.7846348,35.2146776 38.2605907,34.70675 L43.1047725,33.0385162 L47.9489534,34.70675 C49.4249093,35.2146776 50.9750111,35.473807 52.5359199,35.47355 L66.4453125,35.47355 Z" id="Path"></path>
                        <path d="M27.9360316,46.863015 L27.9360316,44.5151337 C26.6353284,44.5150281 25.343683,44.2987872 24.1138691,43.8752462 L18.5048824,41.9442238 L12.896517,43.8752462 C11.6667031,44.2987872 10.3750577,44.5150281 9.07435446,44.5151337 L9.07435446,46.863015 C10.6351052,46.8629178 12.1849934,46.6034892 13.6607015,46.0953275 L18.5048824,44.4271825 L23.3490633,46.0953275 C24.8249686,46.6035571 26.3750724,46.8629867 27.9360316,46.863015 L27.9360316,46.863015 Z" id="Path"></path>
                        <path d="M55.2826348,47.464385 L55.2826348,45.1165925 C53.9819312,45.1164869 52.6902855,44.900246 51.4604714,44.476705 L45.8514865,42.5457712 L40.2431219,44.476705 C39.0133078,44.900246 37.7216621,45.1164869 36.4209585,45.1165925 L36.4209585,47.464385 C37.9817093,47.4642878 39.5315974,47.2048592 41.0073056,46.6966975 L45.8514865,45.0285525 L50.6956656,46.6966975 C52.1715712,47.2049272 53.7216753,47.4643567 55.2826348,47.464385 L55.2826348,47.464385 Z" id="Path"></path>
                        <path d="M46.7691287,56.7346775 L46.7691287,54.3867962 C45.4684251,54.3866907 44.1767794,54.1704498 42.9469652,53.7469088 L37.3379777,51.8158863 L31.7296158,53.7469088 C30.4998016,54.1704498 29.2081559,54.3866907 27.9074524,54.3867962 L27.9074524,56.7346775 C29.4682031,56.7345803 31.0180913,56.4751517 32.4937994,55.96699 L37.3379777,54.298845 L42.1821595,55.96699 C43.658065,56.4752197 45.2081691,56.7346492 46.7691287,56.7346775 L46.7691287,56.7346775 Z" id="Path"></path>
                        <path d="M20.2823869,56.6073212 L20.2823869,54.25944 C18.9816837,54.2593343 17.6900383,54.0430934 16.4602244,53.6195525 L10.8512377,51.6886187 L5.24287319,53.6195525 C4.01305943,54.0430934 2.72141412,54.2593343 1.42071093,54.25944 L1.42071093,56.6073212 C2.98146128,56.6072239 4.53134904,56.3477953 6.00705684,55.8396337 L10.8512377,54.1714887 L15.6954186,55.8396337 C17.1713239,56.3478633 18.7214277,56.6072929 20.2823869,56.6073212 L20.2823869,56.6073212 Z" id="Path"></path>
                    </g>
                </g>
                <g id="noun_Health_53332" transform="translate(0.000000, 99.000000)" fill-rule="nonzero">
                    <path d="M33.9978379,53 L7.46274668,32.7146191 C2.72853297,29.2410852 0,23.9351858 0,18.1743935 C0,8.15253396 8.26775759,0 18.4302096,0 C24.8083176,0 30.6559976,3.25035203 33.9978379,8.47238054 C37.3403989,3.25035203 43.1916824,0 49.5748352,0 C59.7351252,0 68,8.15324473 68,18.1743935 C68,23.9394504 65.271467,29.2453498 60.5134705,32.7316776 L33.9978379,53 Z M18.4302096,2.84236995 C9.85687941,2.84236995 2.88276067,9.71978221 2.88276067,18.1736827 C2.88276067,23.0268215 5.18752782,27.5011198 9.2053755,30.4493945 L33.9971172,49.4020813 L58.7708417,30.4657422 C62.8124722,27.5039629 65.1172393,23.0296646 65.1172393,18.172972 C65.1172393,9.71907144 58.144562,2.84165918 49.5748352,2.84165918 C43.3869894,2.84165918 37.791551,6.46374402 35.3195837,12.0695884 L33.9978379,15.0661955 L32.6760922,12.0695884 C30.2041249,6.46516556 24.6122899,2.84236995 18.4302096,2.84236995 Z" id="Shape"></path>
                    <polygon id="Path" points="27.7054819 26.5186409 27.1594411 28.1085997 18 28.1085997 18 25.5076464 25.3507703 25.5076464 27.4181297 19.4833475 32.7918309 31.7607532 38.4471516 14 42.8556073 26.1575192 50 26.1575192 50 28.7584725 41.0798997 28.7584725 38.6040846 21.9285944 33.1680401 39"></polygon>
                </g>
                <g id="noun_Lotus_53377" transform="translate(313.000000, 101.368421)" fill-rule="nonzero">
                    <path d="M67.6939598,24.2172688 C65.7215184,21.9811022 61.4197254,20.5916474 56.4681098,20.5916474 C56.0135621,20.5916474 55.5491687,20.6087609 55.0823138,20.6340237 C56.8028669,15.5928698 56.8611212,10.4596288 55.0675451,7.69212821 L54.8156567,7.3025919 L54.3635705,7.19420628 C53.8556915,7.07196685 53.296122,7.00921728 52.6996308,7.00921728 C49.9214749,7.00921728 45.8469558,8.43371406 41.970173,11.4644369 C40.439972,6.31082269 37.4681821,2.03570249 34.366756,0.802714144 L33.9351818,0.631578947 L33.5036077,0.802714144 C30.3472092,2.05689066 27.3220879,6.46076972 25.8181423,11.7366234 C21.8379787,8.51602194 17.6026449,7.00921728 14.7399792,7.00921728 C14.143488,7.00921728 13.5839185,7.07115192 13.07686,7.19420628 L12.6247738,7.3025919 L12.3728854,7.69212821 C10.5817708,10.4563691 10.6375636,15.5814608 12.3523734,20.6169102 C12.0791525,20.607946 11.8018292,20.5916474 11.5327107,20.5916474 C6.5810951,20.5916474 2.27930211,21.9811022 0.306040204,24.2172688 L0,24.5644288 L0.0188711118,25.0256789 C0.276502811,31.1881758 10.4857743,40.6315789 22.5764135,40.6315789 C26.4097107,40.6315789 30.1765487,39.7041892 33.7907768,37.8966755 L33.9351818,38.0262493 L34.1271749,37.8542992 C37.7660175,39.6895204 41.5615724,40.6315789 45.424407,40.6315789 C45.424407,40.6315789 45.424407,40.6315789 45.4252274,40.6315789 C57.5158667,40.6315789 67.7243177,31.1881758 67.9811289,25.0256789 L68,24.5644288 L67.6939598,24.2172688 Z M52.7004513,9.32035737 C52.9269046,9.32035737 53.1426917,9.33258131 53.345351,9.35621427 C54.440696,11.5964555 54.3717754,16.1657652 52.5109197,20.9070251 C49.1502208,21.4163561 45.6467579,22.5996337 42.433746,24.6336978 C43.3855064,20.5509009 43.1081831,16.8421567 42.649533,14.2930572 C42.6298415,14.1814119 42.603586,14.0722113 42.5814329,13.9613809 C46.1546369,10.9053953 50.0781872,9.32035737 52.7004513,9.32035737 Z M27.2769613,16.3311959 C27.5321316,16.6180511 27.7848404,16.9097959 28.0301648,17.2137646 C29.8303048,19.4417819 31.6845966,22.5556275 32.5305147,26.5112954 C32.2753445,27.8412603 32.1292985,29.2567929 32.1161708,30.7538184 C31.0413379,29.2845005 29.8483554,28.0026164 28.5741451,26.8845331 C27.0537899,22.9288652 26.9651777,19.1532968 27.2769613,16.3311959 Z M40.5433529,15.9188416 C40.9142113,18.8191757 40.8895968,22.8432976 39.2248365,27.058928 C37.8021188,28.3351076 36.4901663,29.8280585 35.3300031,31.5516344 C35.3726683,29.7538999 35.2102126,28.0784048 34.9090953,26.5112954 C35.7550134,22.5556275 37.6101257,19.4425968 39.4102657,17.2145795 C39.7762012,16.7606638 40.1569053,16.3336407 40.5433529,15.9188416 Z M30.7008374,34.8349854 C22.3942663,32.8677455 18.0842684,27.2251736 16.0371631,23.3338852 C19.1180772,23.9059657 23.0260383,25.2074081 26.5401675,28.1052975 C27.4484423,30.3447238 28.7833683,32.6257115 30.7008374,34.8349854 Z M41.2604551,28.2739879 C44.5924371,25.4559616 48.3010208,24.0999189 51.3351674,23.4585694 C49.3110355,27.2536961 45.1479041,32.6175622 37.2999831,34.6809637 C39.0993026,32.5760008 40.3751538,30.4074733 41.2604551,28.2739879 Z M33.9351818,3.15215592 C36.1496658,4.3558068 38.7825961,8.16234254 40.0223461,13.1480813 C39.1870943,13.9426375 38.3715341,14.8089076 37.5961775,15.7680796 C36.1972538,17.4998048 34.7704336,19.7204878 33.7193948,22.4007909 C32.6683559,19.7204878 31.2423562,17.4998048 29.8434325,15.7688946 C29.1755593,14.942556 28.4781486,14.1838567 27.7643283,13.4805725 C28.967977,8.33021802 31.6706484,4.38188455 33.9351818,3.15215592 Z M14.0950795,9.35621427 C16.7370352,9.04409626 21.2398465,10.7424094 25.2232921,14.2792034 C25.2224716,14.2832781 25.2216511,14.2873527 25.2208306,14.2914274 C24.7654625,16.8209686 24.4906006,20.4930409 25.4161056,24.538351 C22.0537658,22.4439822 18.3804628,21.2647792 14.8942301,20.8149381 C13.0670142,16.1070903 13.0071189,11.5817868 14.0950795,9.35621427 Z M2.39088781,25.405436 C3.84888631,24.110513 7.09471754,22.9019726 11.5327107,22.9019726 C11.9897198,22.9019726 12.5837496,22.9182711 13.2828012,22.9720565 C13.3550037,23.1317827 13.4222834,23.2923238 13.4977678,23.451235 C15.5128743,27.6839789 20.2372161,34.6491814 29.9820942,37.023886 C27.560028,37.8852665 25.0813485,38.3228836 22.5780545,38.3228836 C11.592606,38.3220687 3.1202973,30.0953553 2.39088781,25.405436 Z M45.424407,38.3220687 C42.8439875,38.3220687 40.2914646,37.8575589 37.7996573,36.9440229 C47.3172615,34.4935299 51.9521707,27.6350831 53.9443037,23.451235 C54.0115833,23.3102522 54.0706581,23.1660097 54.1354762,23.024212 C55.0896981,22.9288652 55.8896692,22.9019726 56.4689302,22.9019726 C60.9052825,22.9019726 64.1511137,24.1113279 65.6099327,25.405436 C64.8805232,30.0961703 56.4082145,38.3220687 45.424407,38.3220687 Z" id="Shape"></path>
                </g>
                <g id="noun_Running_3583132" transform="translate(0.000000, 192.000000)" fill-rule="nonzero">
                    <path d="M34.0312978,20 C33.882539,19.9989104 33.7355703,19.9663829 33.5994423,19.9044172 C33.3508539,19.7866163 33.1579496,19.571377 33.0633976,19.3063078 C32.9688456,19.0412385 32.9804381,18.7481841 33.0956109,18.4919648 L41.0335263,0.618600169 C41.2720335,0.0848640121 41.8843031,-0.148116787 42.4010687,0.0982229813 C42.9178343,0.34456275 43.1434073,0.976939233 42.9049001,1.51067541 L34.9669847,19.38404 C34.7983152,19.7604684 34.4328936,20.0010231 34.0312978,20 Z" id="Path"></path>
                    <path d="M51.0496454,27 C50.8982401,26.9987989 50.7486567,26.9672616 50.6101069,26.9071825 C50.3570959,26.7929679 50.1607597,26.5842812 50.0645255,26.3272816 C49.9682913,26.070282 49.98009,25.7861492 50.0973119,25.5377302 L57.998541,8.59976774 C58.2412915,8.08228044 58.8644539,7.85639242 59.3904132,8.09523272 C59.9163725,8.33407301 60.1459586,8.94719766 59.9032082,9.46468497 L52.001979,26.4335373 C51.821292,26.7864767 51.4512422,27.0065306 51.0496454,27 L51.0496454,27 Z" id="Path"></path>
                    <path d="M62.8523474,68 C62.2718232,68 61.6980415,67.8800289 61.1694589,67.6486089 L15.8922576,47.6606591 C14.3891254,46.9952739 13.3285688,45.6516209 13.063984,44.0774289 C12.7993992,42.503237 13.3655618,40.9054094 14.5738163,39.8163706 L17.3393272,37.273953 C17.6847848,36.9666195 18.1976096,36.9121459 18.6041733,37.1395976 L66.475381,63.6076118 C66.9363783,63.8716431 67.1241109,64.4234942 66.9148614,64.8994907 L66.5396952,65.6849531 C65.8900931,67.0889596 64.446837,67.9950867 62.8523474,68 L62.8523474,68 Z M18.2718832,39.3099541 L16.031605,41.3252851 C15.3521639,41.9466038 15.03861,42.8535671 15.1955203,43.7436824 C15.3263347,44.6537545 15.9338727,45.4347855 16.8033755,45.8106886 L62.0591388,65.7676333 C62.9986407,66.1642692 64.0957936,65.7828992 64.5566738,64.8994907 L18.2718832,39.3099541 Z" id="Shape"></path>
                    <path d="M66.2467517,65 C66.0622397,64.9955843 65.8812497,64.9481443 65.7179708,64.861399 L18.5295597,37.5463478 C18.2687921,37.3952379 18.0841845,37.1393383 18.02193,36.8426813 C17.9616574,36.5489295 18.0269229,36.2431708 18.2017155,36.0004139 L27.814953,22.5134741 C28.6871816,21.2826576 30.2274312,20.7296149 31.6750539,21.1274645 C33.060455,21.4704024 34.0788477,22.6596326 34.2132024,24.0913927 C34.2132024,24.2193321 34.2132024,24.2833018 34.2132024,24.3579331 C34.2658501,26.1957065 35.2004521,27.8932594 36.719624,28.9104416 L37.2589806,29.2409516 C38.8480802,30.1567114 40.77249,30.2633948 42.4516094,29.5288151 C44.3305202,28.7732495 46.3584313,28.4702401 48.373956,28.6439013 C49.7929985,28.703353 51.0406281,29.6089507 51.5466416,30.9468096 L56.3691238,43.6341285 C56.9976837,45.3102556 57.8440685,46.8948944 58.886121,48.3465612 C59.981536,49.8218994 61.2692599,51.1416112 62.714495,52.2700346 L64.7344382,53.8799381 C67.8500484,56.3757715 68.8718016,60.6941058 67.209133,64.33898 C67.0872614,64.6122493 66.8569567,64.821209 66.5745959,64.9147071 C66.4702283,64.9597076 66.3596863,64.9884665 66.2467517,65 L66.2467517,65 Z M20.602381,36.2882775 L65.6756683,62.3772433 C66.3317136,59.8492864 65.4388168,57.1697487 63.4019103,55.5538113 L61.3819671,53.9439078 C58.2258572,51.4494711 55.8081441,48.1308098 54.391483,44.3484565 L49.5690009,31.7144457 C49.3754519,31.1729089 48.8804713,30.7997032 48.3105022,30.7655622 C46.6224168,30.6263758 44.9247329,30.8667124 43.3399614,31.4692286 C41.0577574,32.4707074 38.4413419,32.3325051 36.2754481,31.0960722 L35.6514865,30.7122541 C33.5418087,29.3245237 32.2415662,26.9817902 32.172108,24.443226 C32.1663664,24.3722664 32.1663664,24.3009533 32.172108,24.2299937 C32.1098074,23.7002596 31.7176084,23.27049 31.199151,23.1638325 C30.6011599,22.9959396 29.9623318,23.2162632 29.591657,23.7182363 L20.602381,36.2882775 Z" id="Shape"></path>
                    <path d="M54.2721306,51.9995334 C52.8149388,52 51.4907935,51.128108 50.8812757,49.7669606 L46.3325678,39.4971258 C45.4866526,37.5800117 46.3099971,35.3205437 48.1727269,34.4472588 L51.0570212,33.0864525 C51.3177165,32.9711825 51.6130257,32.9711825 51.873721,33.0864525 C52.140198,33.1969384 52.3499428,33.4164862 52.4526474,33.6924366 L56.339725,44.1748974 C56.9541605,45.8462589 57.7815261,47.4263921 58.8001625,48.8739315 C58.9837314,49.1316276 59.0448925,49.4605506 58.9667275,49.7697153 C58.8885625,50.07888 58.6793574,50.3355133 58.3969815,50.4686264 L55.7814745,51.6912258 C55.3052938,51.9028407 54.790807,52.0079328 54.2721306,51.9995334 Z M50.8916136,35.4891261 L49.0101027,36.3715239 C48.1853021,36.761991 47.8207789,37.7632155 48.1934028,38.614728 L52.7421107,48.8739315 C52.9274062,49.2785289 53.2568005,49.5944329 53.6621902,49.7563293 C54.072354,49.9143432 54.5272081,49.8951727 54.9234228,49.7031728 L56.4224288,49.0121384 C55.6161287,47.7222674 54.9406247,46.3507384 54.4065242,44.9190883 L50.8916136,35.4891261 Z" id="Shape"></path>
                    <path d="M51.9630084,38 C51.5603904,38.0014499 51.1995368,37.7237299 51.0586219,37.3039608 C50.8772334,36.7510898 51.1307597,36.1389206 51.6262687,35.9333102 L53.7044336,35.0659453 C54.2039126,34.861913 54.7574299,35.1471696 54.9407493,35.7030837 C55.1240687,36.2589978 54.8677708,36.8750561 54.3682919,37.0790884 L52.2997481,37.9357451 C52.1915004,37.9778871 52.0776868,37.9996025 51.9630084,38 Z" id="Path"></path>
                    <path d="M53.9580979,40.999957 C53.4955362,41.0045797 53.0973089,40.635744 53.0151796,40.126632 C52.9330503,39.6175199 53.1909223,39.1163057 53.6257661,38.9398625 L55.6672327,38.0903389 C55.989486,37.931362 56.3639497,37.9849384 56.6400382,38.2295231 C56.9161268,38.4741077 57.0484742,38.8695112 56.9838586,39.2567274 C56.9192431,39.6439435 56.6682821,39.9593461 56.3318962,40.0761002 L54.2809345,40.9362428 C54.1774392,40.9782528 54.0681993,40.9998122 53.9580979,40.999957 Z" id="Path"></path>
                    <path d="M54.9497839,45 C54.4889388,44.9912221 54.0978392,44.62298 54.0155953,44.1204095 C53.9333515,43.6178389 54.1828606,43.1208585 54.6115778,42.9333119 L56.6987921,42.0659454 C57.200446,41.8619128 57.7563736,42.1471699 57.9404913,42.703085 C58.1246089,43.2590002 57.867195,43.8750596 57.3655411,44.0790924 L55.2879899,44.9357506 C55.1792707,44.9778927 55.0649616,44.9996082 54.9497839,45 L54.9497839,45 Z" id="Path"></path>
                    <path d="M56.9673533,47.9999567 C56.5003232,48.0046152 56.0982489,47.6329173 56.0153262,47.1198543 C55.9324035,46.6067914 56.1927667,46.1016876 56.6318112,45.9238751 L58.7025855,45.067759 C59.2002882,44.8609003 59.7539832,45.1435813 59.939298,45.6991446 C60.1246128,46.254708 59.8713724,46.8727731 59.3736698,47.0796319 L57.3028955,47.935748 C57.1953754,47.9793245 57.0817366,48.0010702 56.9673533,47.9999567 Z" id="Path"></path>
                    <path d="M33.9093175,66 L1.09068246,66 C0.488315168,66 0,65.5522847 0,65 C0,64.4477153 0.488315168,64 1.09068246,64 L33.9093175,64 C34.5116848,64 35,64.4477153 35,65 C35,65.5522847 34.5116848,66 33.9093175,66 Z" id="Path"></path>
                    <path d="M19.9291178,61 L1.0708822,61 C0.479450293,61 0,60.5522847 0,60 C0,59.4477153 0.479450293,59 1.0708822,59 L19.9291178,59 C20.5205497,59 21,59.4477153 21,60 C21,60.5522847 20.5205497,61 19.9291178,61 Z" id="Path"></path>
                    <path d="M7.91826923,56 L1.08173077,56 C0.484307362,56 0,55.5522847 0,55 C0,54.4477153 0.484307362,54 1.08173077,54 L7.91826923,54 C8.51569264,54 9,54.4477153 9,55 C9,55.5522847 8.51569264,56 7.91826923,56 Z" id="Path"></path>
                </g>
                <g id="noun_strong_2525346" transform="translate(313.000000, 193.000000)" fill-rule="nonzero">
                    <g id="Group">
                        <path d="M39.0049157,0.270550887 C30.9479595,0.270550887 23.2092193,5.65654655 16.75,13.3686546 C10.3311508,21.0325655 5.1492323,31.1080885 2.30547753,41.1757667 C0.0622969764,45.1290368 -0.798158804,48.9790914 0.917485955,52.2192293 C2.6445692,55.4810339 6.58609548,57.6168069 12.7742275,58.8733241 C12.816558,58.8822897 12.8493127,58.8884534 12.8918539,58.8966718 C27.9673094,65.1791833 43.1055243,67.5680454 56.9076545,58.5231086 C57.3600381,58.2281306 57.6188005,57.7154649 57.5859505,57.179254 C57.5531004,56.6430432 57.2336603,56.1652673 56.7485996,55.9268564 C56.2635388,55.6884456 55.6870174,55.7258499 55.2373596,56.0249046 C42.3934776,64.4418816 28.5532424,62.2496259 13.7858146,56.0482523 C13.6875033,56.0064301 13.5849817,55.9751231 13.479986,55.9548615 C7.63564822,54.7852351 4.66039428,52.8900368 3.5758427,50.8417149 C2.49129134,48.7933931 2.92300644,46.0863672 4.98735955,42.5065856 C5.04912555,42.3962324 5.09655382,42.2785568 5.12851124,42.1563701 C7.8429402,32.4454448 12.9193164,22.5862075 19.0554775,15.2598184 C25.0124897,8.14732414 31.9132706,3.57010632 38.4167837,3.3057954 L44.886236,10.053281 C44.5373015,10.7250374 43.7582187,12.2694523 42.2278792,14.6060828 C41.3136341,16.0020213 40.2614887,17.4367282 39.2636938,18.5284966 C38.265899,19.6202649 37.2588069,20.3264414 36.770014,20.4663557 C35.9759105,20.6936466 33.7875023,20.3680787 31.994382,19.7892724 C30.2012618,19.2104661 28.7714185,18.5284966 28.7714185,18.5284966 C28.1811066,18.2512526 27.478014,18.383266 27.0305478,18.8553644 C21.5206831,24.5777925 19.1928283,32.9377264 17.0087781,41.2224621 C16.8298491,41.9054407 17.1567063,42.6195533 17.7926925,42.9351461 C18.4286787,43.2507388 19.2004283,43.0817832 19.6436096,42.5299333 C24.2781772,36.7863989 29.6392974,34.6966489 35.8525281,34.661758 C42.0657588,34.6266431 49.1359195,36.8041431 56.53125,39.9850339 C57.0308813,40.2483658 57.6370747,40.2115493 58.1006242,39.8897198 C58.5641737,39.5678903 58.8068529,39.0153582 58.7288964,38.4592694 C58.6509399,37.9031805 58.2655032,37.4373779 57.7310393,37.2533529 C50.1636889,33.9984218 42.7805645,31.6344764 35.8525281,31.6732523 C30.6735749,31.7023902 25.7363012,33.157008 21.4315309,36.5529218 C23.1564248,30.735646 25.2992083,25.493777 28.6302669,21.6804362 C29.24328,21.9493046 29.715703,22.1983144 31.0768961,22.637692 C33.0780099,23.2836351 35.431342,23.963677 37.6169242,23.338123 C39.1448652,22.9007701 40.3279595,21.8172874 41.4985955,20.5363989 C42.6692316,19.2555103 43.7764555,17.719396 44.7450843,16.2404218 C46.6823426,13.2824736 48.0856742,10.4968874 48.0856742,10.4968874 C48.3714885,9.93164952 48.2678497,9.24905669 47.8268961,8.79250517 L40.0870787,0.714200575 C39.8014262,0.427503072 39.4111648,0.267524902 39.0049157,0.270550887 Z M56.8370787,8.44227883 C56.3379831,8.44165853 55.8710017,8.68650344 55.5902388,9.09602529 L52.2261236,13.7422178 C51.910861,14.1759639 51.8527312,14.7436911 52.0736344,15.2315098 C52.2945376,15.7193284 52.7609074,16.053114 53.2970403,16.1071138 C53.8331731,16.1611136 54.3576031,15.9271223 54.6727528,15.4932954 L58.036868,10.8471029 C58.3868745,10.3949518 58.4471329,9.78454091 58.1922035,9.27357006 C57.9372742,8.7625992 57.411589,8.44012574 56.8370787,8.44227883 L56.8370787,8.44227883 Z M62.8830758,16.5205943 C62.6954843,16.5333516 62.5119598,16.5808661 62.3419944,16.6606805 L57.3546348,18.9020598 C56.8629556,19.1189344 56.5252065,19.5796625 56.4686143,20.1106923 C56.4120221,20.6417221 56.6451845,21.1623776 57.0802716,21.4765328 C57.5153586,21.790688 58.0862702,21.8506154 58.5779494,21.6337408 L63.5888343,19.3923615 C64.2791389,19.1126407 64.6592163,18.3736523 64.4825354,17.6547289 C64.3058546,16.9358056 63.6256291,16.4534756 62.8830758,16.5205943 Z M58.625,26.1865425 C57.8208801,26.2239515 57.1883053,26.8818691 57.1883053,27.6807954 C57.1883053,28.4797217 57.8208801,29.1376393 58.625,29.1750483 L64.6004213,29.7587408 C65.1595221,29.8584588 65.7275835,29.6374186 66.0694052,29.1871396 C66.4112269,28.7368606 66.4686244,28.1339889 66.2178329,27.6281376 C65.9670413,27.1222863 65.4507502,26.7995609 64.8827247,26.7935828 L58.9073034,26.2098902 C58.8606522,26.199892 58.8135485,26.1921006 58.7661517,26.1865425 C58.7191269,26.1843549 58.6720247,26.1843549 58.625,26.1865425 L58.625,26.1865425 Z" id="Shape"></path>
                    </g>
                </g>
            </g>
        </g>
    </g>
</svg>