<?xml version="1.0" encoding="UTF-8"?>
<svg width="401px" height="175px" viewBox="0 0 401 175" version="1.1" xmlns="http://www.w3.org/2000/svg" xmlns:xlink="http://www.w3.org/1999/xlink">
    <title>learning-two</title>
    <g id="Case-Study-Assets" stroke="none" stroke-width="1" fill="none" fill-rule="evenodd">
        <g id="Custom-Preset" transform="translate(-6700.000000, -520.000000)" fill="#000000">
            <g id="learning-two" transform="translate(6700.500000, 520.000000)">
                <g id="noun_usability_3146856" transform="translate(129.500000, 0.000000)" fill-rule="nonzero">
                    <g id="Group">
                        <path d="M117.860638,74.36125 L94.0606383,50.62625 L94.0606383,26.89125 C94.0606383,22.85125 90.7691489,19.56875 86.7180851,19.56875 C82.6670213,19.56875 79.3755319,22.85125 79.3755319,26.89125 L79.3755319,35.855 L56.9680851,13.635 C54.056383,10.73125 49.3723404,10.73125 46.4606383,13.635 C43.5489362,16.53875 43.5489362,21.21 46.4606383,24.11375 L61.1457447,38.75875 C60.006383,39.1375 58.8670213,39.76875 57.9808511,40.6525 C56.0819149,42.54625 55.4489362,45.1975 56.0819149,47.7225 C54.4361702,47.84875 52.9170213,48.60625 51.6510638,49.86875 C49.7521277,51.7625 49.1191489,54.41375 49.7521277,56.93875 C48.106383,57.065 46.587234,57.8225 45.3212766,59.085 C43.9287234,60.47375 43.1691489,62.3675 43.1691489,64.26125 C43.1691489,66.155 43.9287234,68.04875 45.3212766,69.4375 L53.55,77.64375 C59.2468085,83.325 67.4755319,85.5975 75.3244681,83.83 L91.9085106,100.36875 C92.2882979,100.7475 92.7946809,100.87375 93.3010638,100.87375 C93.8074468,100.87375 94.3138298,100.7475 94.693617,100.36875 L117.860638,77.0125 C118.493617,76.255 118.493617,75.11875 117.860638,74.36125 Z M93.1744681,96.2025 L77.2234043,80.295 C76.843617,79.91625 76.337234,79.79 75.8308511,79.79 C75.7042553,79.79 75.4510638,79.79 75.3244681,79.91625 C68.4882979,81.81 61.1457447,79.91625 56.2085106,74.9925 L47.9797872,66.78625 C46.587234,65.3975 46.587234,63.125 47.9797872,61.73625 C49.3723404,60.3475 51.6510638,60.3475 53.043617,61.73625 C53.8031915,62.49375 54.9425532,62.49375 55.7021277,61.73625 C56.0819149,61.3575 56.2085106,60.8525 56.2085106,60.3475 C56.2085106,59.8425 56.0819149,59.3375 55.7021277,58.95875 L54.3095745,57.57 C53.6765957,56.93875 53.2968085,56.055 53.2968085,55.045 C53.2968085,54.035 53.6765957,53.15125 54.3095745,52.52 C55.7021277,51.13125 57.9808511,51.13125 59.3734043,52.52 C60.1329787,53.2775 61.2723404,53.2775 62.0319149,52.52 C62.4117021,52.14125 62.5382979,51.63625 62.5382979,51.13125 C62.5382979,50.62625 62.4117021,50.12125 62.0319149,49.7425 L60.6393617,48.35375 C59.2468085,46.965 59.2468085,44.6925 60.6393617,43.30375 C62.0319149,41.915 64.3106383,41.915 65.7031915,43.30375 C66.462766,44.06125 67.6021277,44.06125 68.3617021,43.30375 C69.1212766,42.54625 69.1212766,41.41 68.3617021,40.6525 L49.1191489,21.33625 C47.7265957,19.9475 47.7265957,17.675 49.1191489,16.28625 C50.5117021,14.8975 52.7904255,14.8975 54.1829787,16.28625 L79.7553191,41.78875 C80.2617021,42.29375 81.1478723,42.54625 81.7808511,42.1675 C82.5404255,41.915 82.9202128,41.1575 82.9202128,40.4 L82.9202128,26.89125 C82.9202128,24.87125 84.5659574,23.35625 86.4648936,23.35625 C88.3638298,23.35625 90.0095745,24.9975 90.0095745,26.89125 L90.0095745,51.38375 C90.0095745,51.88875 90.262766,52.39375 90.5159574,52.7725 L113.809574,75.75 L93.1744681,96.2025 Z" id="Shape"></path>
                        <path d="M51.9042553,36.48625 C52.9170213,36.48625 53.8031915,35.6025 53.8031915,34.5925 C53.8031915,33.5825 52.9170213,32.69875 51.9042553,32.69875 C43.9287234,32.69875 37.4723404,26.26 37.4723404,18.30625 C37.4723404,10.3525 44.0553191,3.91375 51.9042553,3.91375 C59.7531915,3.91375 66.3361702,10.3525 66.3361702,18.30625 C66.3361702,19.31625 67.2223404,20.2 68.2351064,20.2 C69.2478723,20.2 70.1340426,19.31625 70.1340426,18.30625 C70.1340426,8.3325 61.9053191,0.12625 51.9042553,0.12625 C42.5361702,0.12625 34.8138298,7.3225 33.8010638,16.4125 L10.6340426,16.4125 L12.912766,15.27625 C13.7989362,14.77125 14.1787234,13.635 13.7989362,12.75125 C13.2925532,11.8675 12.1531915,11.48875 11.2670213,11.8675 L1.64574468,16.53875 C1.64574468,16.53875 1.64574468,16.53875 1.64574468,16.53875 C1.51914894,16.53875 1.39255319,16.665 1.26595745,16.79125 C1.26595745,16.79125 1.26595745,16.79125 1.1393617,16.9175 C1.01276596,17.04375 0.886170213,17.17 0.886170213,17.29625 C0.886170213,17.29625 0.886170213,17.29625 0.886170213,17.4225 C0.759574468,17.54875 0.759574468,17.675 0.759574468,17.80125 C0.759574468,17.80125 0.759574468,17.9275 0.759574468,17.9275 C0.759574468,18.05375 0.632978723,18.18 0.632978723,18.4325 C0.632978723,18.685 0.632978723,18.81125 0.759574468,18.9375 C0.759574468,18.9375 0.759574468,19.06375 0.759574468,19.06375 C0.759574468,19.19 0.886170213,19.31625 0.886170213,19.4425 C0.886170213,19.4425 0.886170213,19.4425 0.886170213,19.56875 C1.01276596,19.695 1.01276596,19.82125 1.1393617,19.9475 C1.1393617,19.9475 1.1393617,19.9475 1.26595745,20.07375 C1.39255319,20.2 1.51914894,20.2 1.64574468,20.32625 C1.64574468,20.32625 1.64574468,20.32625 1.64574468,20.32625 L11.2670213,24.9975 C11.5202128,25.12375 11.7734043,25.25 12.1531915,25.25 C12.912766,25.25 13.5457447,24.87125 13.7989362,24.24 C14.3053191,23.35625 13.9255319,22.22 12.912766,21.715 L10.6340426,20.2 L33.8010638,20.2 C34.8138298,29.29 42.5361702,36.48625 51.9042553,36.48625 Z" id="Path"></path>
                    </g>
                </g>
                <text id="Always-Think-About-Y" font-family="HelveticaNeue-Bold, Helvetica Neue" font-size="25" font-weight="bold">
                    <tspan x="82.2" y="141">Always Think About </tspan>
                    <tspan x="133.55" y="170">Your Users</tspan>
                </text>
            </g>
        </g>
    </g>
</svg>