<?xml version="1.0" encoding="UTF-8"?>
<svg width="119px" height="101px" viewBox="0 0 119 101" version="1.1" xmlns="http://www.w3.org/2000/svg" xmlns:xlink="http://www.w3.org/1999/xlink">
    <title>learning-one copy</title>
    <g id="Case-Study-Assets" stroke="none" stroke-width="1" fill="none" fill-rule="evenodd">
        <g id="Custom-Preset" transform="translate(-6873.000000, -755.000000)" fill="#000000" fill-rule="nonzero">
            <g id="Group" transform="translate(6873.000000, 755.000000)">
                <path d="M35.9531915,17.29625 C30.6361702,17.29625 26.3319149,21.58875 26.3319149,26.89125 C26.3319149,27.90125 27.2180851,28.785 28.2308511,28.785 C29.243617,28.785 30.1297872,27.90125 30.1297872,26.89125 C30.1297872,23.60875 32.7882979,21.08375 35.9531915,21.08375 C39.1180851,21.08375 41.7765957,23.735 41.7765957,26.89125 C41.7765957,30.0475 39.1180851,32.69875 35.9531915,32.69875 C34.9404255,32.69875 34.0542553,33.5825 34.0542553,34.5925 L34.0542553,45.7025 C34.0542553,46.7125 34.9404255,47.59625 35.9531915,47.59625 C36.9659574,47.59625 37.8521277,46.7125 37.8521277,45.7025 L37.8521277,36.23375 C42.2829787,35.35 45.5744681,31.43625 45.5744681,26.765 C45.7010638,21.58875 41.2702128,17.29625 35.9531915,17.29625 Z" id="Path"></path>
                <path d="M35.9531915,50.12125 L35.9531915,50.12125 C34.9404255,50.12125 34.0542553,51.005 34.0542553,52.015 C34.0542553,53.025 34.9404255,53.90875 35.9531915,53.90875 C36.9659574,53.90875 37.8521277,53.025 37.8521277,52.015 C37.8521277,51.005 37.0925532,50.12125 35.9531915,50.12125 Z" id="Path"></path>
                <path d="M109.252128,89.00625 C115.075532,82.5675 118.367021,74.235 118.367021,65.3975 C118.367021,45.955 102.542553,30.17375 83.0468085,30.17375 C78.8691489,30.17375 74.9446809,30.93125 71.2734043,32.19375 C69.5010638,14.3925 54.4361702,0.37875 36.0797872,0.37875 C16.4574468,0.37875 0.632978723,16.16 0.632978723,35.6025 C0.632978723,44.44 3.79787234,52.64625 9.74787234,59.21125 L1.26595745,67.67 C0.759574468,68.175 0.506382979,69.05875 0.886170213,69.69 C1.26595745,70.32125 1.89893617,70.82625 2.65851064,70.82625 L36.0797872,70.82625 C40.2574468,70.82625 44.1819149,70.06875 47.8531915,68.80625 C49.6255319,86.6075 64.6904255,100.62125 83.0468085,100.62125 L116.468085,100.62125 C117.22766,100.62125 117.987234,100.11625 118.240426,99.485 C118.493617,98.85375 118.367021,97.97 117.860638,97.465 L109.252128,89.00625 Z M7.0893617,67.03875 L13.6723404,60.47375 C14.0521277,60.095 14.1787234,59.59 14.1787234,59.085 C14.1787234,58.58 13.9255319,58.075 13.6723404,57.69625 C7.72234043,51.7625 4.43085106,43.80875 4.43085106,35.47625 C4.43085106,18.05375 18.6095745,4.04 35.9531915,4.04 C52.6638298,4.04 66.462766,17.17 67.4755319,33.5825 C55.8287234,39.26375 47.8531915,51.13125 47.6,64.76625 C44.0553191,66.155 40.1308511,67.03875 35.9531915,67.03875 L7.0893617,67.03875 Z M67.4755319,38.00125 C66.7159574,48.7325 60.3861702,57.94875 51.5244681,62.99875 C52.2840426,52.2675 58.6138298,43.05125 67.4755319,38.00125 Z M83.0468085,96.83375 C66.3361702,96.83375 52.537234,83.70375 51.5244681,67.29125 C63.1712766,61.61 71.1468085,49.7425 71.4,36.1075 C74.9446809,34.71875 78.8691489,33.835 83.0468085,33.835 C100.517021,33.835 114.569149,47.975 114.569149,65.27125 C114.569149,73.73 111.27766,81.5575 105.32766,87.49125 C104.947872,87.87 104.821277,88.375 104.821277,88.88 C104.821277,89.385 105.074468,89.89 105.32766,90.26875 L111.910638,96.83375 L83.0468085,96.83375 Z" id="Shape"></path>
                <path d="M90.7691489,61.8625 L90.7691489,61.8625 C89.756383,61.8625 88.8702128,62.74625 88.8702128,63.75625 C88.8702128,64.76625 89.756383,65.65 90.7691489,65.65 C91.7819149,65.65 92.6680851,64.76625 92.6680851,63.75625 C92.6680851,62.74625 91.9085106,61.8625 90.7691489,61.8625 Z" id="Path"></path>
                <path d="M83.1734043,61.8625 L83.1734043,61.8625 C82.1606383,61.8625 81.2744681,62.74625 81.2744681,63.75625 C81.2744681,64.76625 82.1606383,65.65 83.1734043,65.65 C84.1861702,65.65 85.0723404,64.76625 85.0723404,63.75625 C85.0723404,62.74625 84.312766,61.8625 83.1734043,61.8625 Z" id="Path"></path>
                <path d="M75.5776596,61.8625 L75.5776596,61.8625 C74.5648936,61.8625 73.6787234,62.74625 73.6787234,63.75625 C73.6787234,64.76625 74.5648936,65.65 75.5776596,65.65 C76.5904255,65.65 77.4765957,64.76625 77.4765957,63.75625 C77.4765957,62.74625 76.7170213,61.8625 75.5776596,61.8625 Z" id="Path"></path>
            </g>
        </g>
    </g>
</svg>