<?xml version="1.0" encoding="UTF-8"?>
<svg width="400px" height="175px" viewBox="0 0 400 175" version="1.1" xmlns="http://www.w3.org/2000/svg" xmlns:xlink="http://www.w3.org/1999/xlink">
    <title>learning-three</title>
    <g id="Case-Study-Assets" stroke="none" stroke-width="1" fill="none" fill-rule="evenodd">
        <g id="Custom-Preset" transform="translate(-6153.000000, -520.000000)">
            <g id="learning-three" transform="translate(6153.000000, 520.000000)">
                <text id="Don’t-Get-too-Attach" font-family="HelveticaNeue-Bold, Helvetica Neue" font-size="25" font-weight="bold" fill="#000000">
                    <tspan x="47.2" y="140">Don’t Get too Attached to</tspan>
                    <tspan x="118.5125" y="169"> your Designs</tspan>
                </text>
                <g id="noun_Computer_3037012" transform="translate(140.000000, 0.000000)">
                    <path d="M63.8015945,33.0085441 C60.3787744,33.0121149 57.6049107,35.8190905 57.601382,39.2827692 C57.601382,40.1772346 56.8848282,40.9023421 56.0009142,40.9023421 C55.1170002,40.9023421 54.4004463,40.1772346 54.4004463,39.2827692 C54.4039598,36.511062 52.6098317,34.0654241 49.9870175,33.2666722 C47.3642033,32.4679204 44.5342247,33.5053329 43.0254696,35.8186338 C41.5167144,38.1319347 41.6867086,41.172947 43.4436433,43.2993098 C43.6781265,43.5835547 43.937378,43.8459009 44.2182698,44.0831831 L56.0009142,56 L67.6747268,44.1835966 C67.9899296,43.9187856 68.2822713,43.6272887 68.5485822,43.3122664 C70.0977684,41.4454198 70.4374396,38.8392316 69.4195287,36.6297732 C68.4016178,34.4203148 66.2106101,33.0080269 63.8015945,33.0085441 L63.8015945,33.0085441 Z" id="Path"></path>
                    <path d="M104,71.1527751 L104,10.8472249 C103.935168,9.77074879 103.007718,8.94740476 101.92216,9.00262258 L11.0778396,9.00262258 C9.992282,8.94740476 9.06483177,9.77074879 9,10.8472249 L9,71.1527751 C9.06483177,72.2292512 9.992282,73.0525952 11.0778396,72.9973774 L101.92216,72.9973774 C103.007718,73.0525952 103.935168,72.2292512 104,71.1527751 Z M71.7983793,45.4124828 C71.4347092,45.8461115 71.0318146,46.2458231 70.5947329,46.6066201 L57.6547178,59.4605855 C57.3487363,59.7649181 56.9332712,59.935955 56.5,59.935955 C56.0667288,59.935955 55.6512637,59.7649181 55.3452822,59.4605855 L42.297624,46.5160081 C41.9038559,46.189575 41.54133,45.8277465 41.2146683,45.4351359 C38.9386877,42.7421706 38.346903,39.0227525 39.6761163,35.765204 C41.0053296,32.5076554 44.0384289,30.2440601 47.561722,29.8801941 C51.085015,29.516328 54.5230116,31.1116245 56.5,34.027727 C58.4777686,31.1226356 61.9076891,29.5345524 65.4223583,29.8965969 C68.9370275,30.2586414 71.9649217,32.5119413 73.2989131,35.7581755 C74.6329044,39.0044097 74.0560713,42.7157051 71.7983793,45.4124828 L71.7983793,45.4124828 Z" id="Shape"></path>
                    <path d="M106.509215,79 C107.884094,78.9982137 108.998206,77.8887101 109,76.5195188 L109,5.48372371 C109,4.11326624 107.885364,3.00178911 106.509215,3 L5.49078511,3 C4.11463597,3.00178911 3,4.11326624 3,5.48372371 L3,76.5195188 C3.00179371,77.8887101 4.11590614,78.9982137 5.49078511,79 L106.509215,79 Z M5.53311218,71.9476514 C5.41149791,71.725569 5.34559302,71.4775013 5.34101241,71.224583 L5.34101241,9.6989206 C5.34520506,9.44594861 5.41113407,9.19779015 5.53311218,8.97585221 C6.18711193,6.69650869 8.29068967,5.13398102 10.6709669,5.15917032 L101.348569,5.15917032 C103.721623,5.1427738 105.814816,6.70352262 106.466888,8.97585221 C106.588866,9.19779015 106.654795,9.44594861 106.658988,9.6989206 L106.658988,71.224583 C106.654407,71.4775013 106.588502,71.725569 106.466888,71.9476514 C105.812888,74.2269949 103.70931,75.7895225 101.329033,75.7643332 L10.6611992,75.7643332 C8.28453259,75.7851206 6.18615111,74.2234838 5.53311218,71.9476514 Z" id="Shape"></path>
                    <rect id="Rectangle" x="105" y="93" width="10" height="4"></rect>
                    <rect id="Rectangle" x="51" y="83" width="10" height="7"></rect>
                    <path d="M19.2355351,93 L92.7644649,93 C93.4468321,93 94,93.5351514 94,94.1952941 L94,95.8078431 C94,96.4662532 93.448284,97 92.7677078,97 L19.2355351,97 C18.5531679,97 18,96.4648486 18,95.8047059 L18,94.1952941 C18,93.8782824 18.1301721,93.5742547 18.3618798,93.3500935 C18.5935876,93.1259324 18.9078508,93 19.2355351,93 Z" id="Path"></path>
                    <path d="M63.7015734,30 C60.6033407,30.0015921 57.7091992,31.5723589 55.9823329,34.1895418 C54.0515449,31.3100143 50.7210223,29.7437897 47.3142488,30.1132547 C43.9074752,30.4827197 40.9762731,32.7280291 39.685444,35.9569414 C38.3946149,39.1858538 38.9532448,42.8753563 41.1393451,45.5593139 C41.4565535,45.9502964 41.8085882,46.3106244 42.190961,46.6357038 L54.8610316,59.5266018 C55.1581583,59.8296723 55.5616002,60 55.9823329,60 C56.4030656,60 56.8065074,59.8296723 57.1036341,59.5266018 L69.6691767,46.7259401 C70.0936097,46.3666392 70.4848448,45.9685853 70.8379907,45.5367548 C73.1520482,42.7176426 73.653511,38.7907052 72.1243192,35.4635605 C70.5951274,32.1364158 67.3116014,30.0102686 63.7015734,30.0096682 L63.7015734,30 Z M68.3990021,43.4742111 C68.1354715,43.7876363 67.8461818,44.0776555 67.5342698,44.341124 L55.9823329,56.0976229 L44.3227004,44.2412195 C44.0447411,44.0051402 43.7881962,43.7441241 43.5561611,43.4613202 C41.8228035,41.3459974 41.6576432,38.3245943 43.1497621,36.0267561 C44.641881,33.728918 47.438285,32.6982498 50.030686,33.4906602 C52.6230871,34.2830705 54.3981945,36.7110968 54.398574,39.4651418 C54.398574,40.3550726 55.107647,41.0765041 55.9823329,41.0765041 C56.8570187,41.0765041 57.5660917,40.3550726 57.5660917,39.4651418 C57.5632011,36.7057961 59.3412567,34.2718777 61.9390185,33.4791948 C64.5367803,32.6865119 67.3378711,33.7231462 68.8279846,36.0286797 C70.3180981,38.3342133 70.1436715,41.3616065 68.3990021,43.4742111 L68.3990021,43.4742111 Z" id="Shape" fill="#000000" fill-rule="nonzero"></path>
                    <path d="M105.808503,73.1617053 C105.929736,72.9383829 105.995434,72.6889301 106,72.4345996 L106,10.5654004 C105.995821,10.3110159 105.930098,10.0614718 105.808503,9.83829469 C105.156556,7.54622414 103.05958,5.97497189 100.686773,6.00030184 L10.3034899,6.00030184 C7.93428227,5.97939844 5.84248633,7.54975486 5.19149688,9.83829469 C5.06990159,10.0614718 5.00417949,10.3110159 5,10.5654004 L5,72.4345996 C5.00456624,72.6889301 5.07026429,72.9383829 5.19149688,73.1617053 C5.84344413,75.4537759 7.94042003,77.0250281 10.3132271,76.9996982 L100.706247,76.9996982 C103.071854,77.0161862 105.158478,75.4467228 105.808503,73.1617053 L105.808503,73.1617053 Z M8.22623562,71.8803037 L8.22623562,11.1196963 C8.29074531,10.0350973 9.21358812,9.20554039 10.2937528,9.26117488 L100.686773,9.26117488 C101.766938,9.20554039 102.68978,10.0350973 102.75429,11.1196963 L102.75429,71.8803037 C102.68978,72.9649027 101.766938,73.7944596 100.686773,73.7388251 L10.3034899,73.7388251 C9.22332525,73.7944596 8.30048244,72.9649027 8.23597275,71.8803037 L8.22623562,71.8803037 Z" id="Shape" fill="#000000" fill-rule="nonzero"></path>
                    <path d="M92.7445306,89.3890779 L64.5921982,89.3890779 L64.5921982,82.4469292 L106.27943,82.4469292 C109.437333,82.4433571 111.996428,79.8843808 112,76.7266245 L112,5.72354562 C111.996432,2.56526269 109.437857,0.00535706516 106.27943,0 L5.72056951,0 C2.56214287,0.00535706516 0.00356834242,2.56526269 0,5.72354562 L0,76.7266245 C0.00357229124,79.8843808 2.56266708,82.4433571 5.72056951,82.4469292 L47.8972103,82.4469292 L47.8972103,89.3890779 L19.2554694,89.3890779 C16.7841941,89.3908654 14.7812759,91.3936909 14.7794884,93.8648517 L14.7794884,95.5274672 C14.7830623,97.9973622 16.785458,99.9982154 19.2554694,100 L92.7445306,100 C95.214542,99.9982154 97.2169377,97.9973622 97.2205116,95.5274672 L97.2205116,93.8648517 C97.2187241,91.3936909 95.2158059,89.3908654 92.7445306,89.3890779 L92.7445306,89.3890779 Z M3.24111587,76.7266245 L3.24111587,5.72354562 C3.24111587,4.35371933 4.35068096,3.24275409 5.72056951,3.24096581 L106.27943,3.24096581 C107.649319,3.24275409 108.758884,4.35371933 108.758884,5.72354562 L108.758884,76.7266245 C108.757099,78.0951853 107.648055,79.2041779 106.27943,79.2059634 L5.72056951,79.2059634 C4.35194536,79.2041779 3.24290142,78.0951853 3.24111587,76.7266245 Z M51.1383262,82.4469292 L61.3608056,82.4469292 L61.3608056,89.3890779 L51.1383262,89.3890779 L51.1383262,82.4469292 Z M93.9891191,95.5274672 C93.9873324,96.2081668 93.4349874,96.7590342 92.754254,96.7590342 L19.2554694,96.7590342 C18.5747359,96.7590342 18.0223909,96.2081668 18.0206042,95.5274672 L18.0206042,93.8648517 C18.0223853,93.1836252 18.5742113,92.6318247 19.2554694,92.6300438 L92.7445306,92.6300438 C93.4257887,92.6318247 93.9776147,93.1836252 93.9793958,93.8648517 L93.9891191,95.5274672 Z" id="Shape" fill="#000000" fill-rule="nonzero"></path>
                    <path d="M116.297148,90 L105.709145,90 C104.214153,90 103.001736,91.1755449 103,92.6267563 L103,97.3762981 C103.00347,98.8263162 104.215379,100 105.709145,100 L116.297148,100 C117.789173,99.9983169 118.998266,98.8246309 119,97.3762981 L119,92.6267563 C119,91.1772308 117.790401,90.0016855 116.297148,90 Z M115.856637,96.9456323 L106.146509,96.9456323 L106.146509,93.0543677 L115.856637,93.0543677 L115.856637,96.9456323 Z" id="Shape" fill="#000000" fill-rule="nonzero"></path>
                </g>
            </g>
        </g>
    </g>
</svg>