<?xml version="1.0" encoding="UTF-8"?>
<svg width="960px" height="1170px" viewBox="0 0 960 1170" version="1.1" xmlns="http://www.w3.org/2000/svg" xmlns:xlink="http://www.w3.org/1999/xlink">
    <title>logo-development</title>
    <defs>
        <linearGradient x1="50%" y1="-4.79431152%" x2="50%" y2="100%" id="linearGradient-1">
            <stop stop-color="#A3D7E3" offset="0%"></stop>
            <stop stop-color="#397A8E" offset="100%"></stop>
        </linearGradient>
        <linearGradient x1="50%" y1="-4.79431152%" x2="50%" y2="100%" id="linearGradient-2">
            <stop stop-color="#A3D7E3" offset="0%"></stop>
            <stop stop-color="#397A8E" offset="100%"></stop>
        </linearGradient>
    </defs>
    <g id="Case-Study-Assets" stroke="none" stroke-width="1" fill="none" fill-rule="evenodd">
        <g id="Custom-Preset" transform="translate(-1272.000000, -5672.000000)">
            <g id="logo-development" transform="translate(1272.000000, 5672.000000)">
                <rect id="Rectangle" fill="#FFFFFF" x="0" y="0" width="960" height="1170"></rect>
                <path id="Line-5" d="M479.988669,278.988733 L479.999968,280.988701 L480.364,345.489 L490.364217,345.432587 L478.5,369.5 L466.3646,345.568179 L476.364,345.511 L476.000032,281.011299 L475.988733,279.011331 L479.988669,278.988733 Z" fill="#000000" fill-rule="nonzero"></path>
                <path id="Line-5-Copy" d="M481.988669,817.988733 L481.999968,819.988701 L482.364,884.489 L492.364217,884.432587 L480.5,908.5 L468.3646,884.568179 L478.364,884.511 L478.000032,820.011299 L477.988733,818.011331 L481.988669,817.988733 Z" fill="#000000" fill-rule="nonzero"></path>
                <text id="Logo-in-Black" font-family="SFProDisplay-Medium, SF Pro Display" font-size="24" font-weight="400" letter-spacing="0.24" fill="#7D7D80">
                    <tspan x="234" y="275">Logo in Black</tspan>
                </text>
                <text id="Logo-in-White" font-family="SFProDisplay-Medium, SF Pro Display" font-size="24" font-weight="400" letter-spacing="0.24" fill="#7D7D80">
                    <tspan x="583" y="275">Logo in White</tspan>
                </text>
                <text id="Final-Logos" font-family="SFProDisplay-Medium, SF Pro Display" font-size="24" font-weight="400" letter-spacing="0.24" fill="#7D7D80">
                    <tspan x="419" y="798">Final Logos</tspan>
                </text>
                <text id="App-Icon" font-family="SFProDisplay-Medium, SF Pro Display" font-size="24" font-weight="400" letter-spacing="0.24" fill="#7D7D80">
                    <tspan x="432" y="1091">App Icon</tspan>
                </text>
                <g id="logo-long" transform="translate(211.000000, 637.000000)">
                    <g id="Logo" fill="url(#linearGradient-1)" fill-rule="nonzero">
                        <path d="M186.649439,46.6559889 C186.255937,42.9777159 183.304667,39.8802228 179.369642,39.4930362 C178.189134,39.2994429 153.791974,37.1699164 130.575322,46.2688022 C121.721514,20.7144847 99.8821206,2.71030641 98.7016129,1.74233983 C95.7503435,-0.580779944 91.4218151,-0.580779944 88.4705458,1.74233983 C87.2900381,2.71030641 65.4506449,20.7144847 56.5968369,46.2688022 C33.3801847,37.1699164 8.98302482,39.2994429 7.60576579,39.4930362 C3.86749129,39.8802228 0.719470655,42.7841226 0.325968076,46.6559889 C0.129216786,48.591922 -3.805809,92.1504178 21.9686099,117.511142 C41.2502363,136.483287 71.1564323,139 85.5192765,139 C89.6510535,139 97.3243538,139 101.25938,139 C115.818975,139 145.52842,136.483287 164.810046,117.511142 C190.977968,91.9568245 186.846191,48.3983287 186.649439,46.6559889 Z M93.5860793,18.5849582 C100.275623,25.1671309 111.490447,38.137883 116.212478,53.6253482 C113.261208,55.7548747 110.309939,57.8844011 107.555421,60.5947075 C101.25938,66.7896936 96.9308512,73.9526462 93.5860793,81.3091922 C90.4380587,73.9526462 85.912779,66.7896936 79.6167378,60.5947075 C76.8622197,57.8844011 73.9109504,55.7548747 70.959681,53.6253482 C75.681712,38.3314763 86.8965355,25.3607242 93.5860793,18.5849582 Z M16.2628225,54.9805014 C28.2646512,54.9805014 53.252065,57.1100279 68.4019143,71.8231198 C83.5517636,86.729805 85.5192765,111.122563 85.5192765,123.125348 C73.5174478,123.125348 48.530034,120.995822 33.3801847,106.28273 C18.2303354,91.3760446 16.2628225,66.7896936 16.2628225,54.9805014 Z M153.791974,106.28273 C138.642125,121.189415 113.851462,123.125348 101.652882,123.125348 C101.652882,122.931755 101.652882,122.738162 101.652882,122.544568 C101.652882,110.541783 103.817146,86.5362117 118.966996,71.8231198 C134.116845,56.9164345 159.104259,54.9805014 171.106087,54.9805014 C170.909336,66.7896936 168.941823,91.3760446 153.791974,106.28273 Z" id="Shape"></path>
                    </g>
                    <text id="zenfit" font-family="Poppins-Bold, Poppins" font-size="120" font-weight="bold" line-spacing="120" fill="#C5576B">
                        <tspan x="195" y="127">zenfit</tspan>
                    </text>
                </g>
                <g id="Logo-cubic" transform="translate(365.000000, 395.000000)">
                    <g id="Logo-Copy-2" transform="translate(21.000000, 0.000000)" fill="url(#linearGradient-1)" fill-rule="nonzero">
                        <path d="M186.649439,46.6559889 C186.255937,42.9777159 183.304667,39.8802228 179.369642,39.4930362 C178.189134,39.2994429 153.791974,37.1699164 130.575322,46.2688022 C121.721514,20.7144847 99.8821206,2.71030641 98.7016129,1.74233983 C95.7503435,-0.580779944 91.4218151,-0.580779944 88.4705458,1.74233983 C87.2900381,2.71030641 65.4506449,20.7144847 56.5968369,46.2688022 C33.3801847,37.1699164 8.98302482,39.2994429 7.60576579,39.4930362 C3.86749129,39.8802228 0.719470655,42.7841226 0.325968076,46.6559889 C0.129216786,48.591922 -3.805809,92.1504178 21.9686099,117.511142 C41.2502363,136.483287 71.1564323,139 85.5192765,139 C89.6510535,139 97.3243538,139 101.25938,139 C115.818975,139 145.52842,136.483287 164.810046,117.511142 C190.977968,91.9568245 186.846191,48.3983287 186.649439,46.6559889 Z M93.5860793,18.5849582 C100.275623,25.1671309 111.490447,38.137883 116.212478,53.6253482 C113.261208,55.7548747 110.309939,57.8844011 107.555421,60.5947075 C101.25938,66.7896936 96.9308512,73.9526462 93.5860793,81.3091922 C90.4380587,73.9526462 85.912779,66.7896936 79.6167378,60.5947075 C76.8622197,57.8844011 73.9109504,55.7548747 70.959681,53.6253482 C75.681712,38.3314763 86.8965355,25.3607242 93.5860793,18.5849582 Z M16.2628225,54.9805014 C28.2646512,54.9805014 53.252065,57.1100279 68.4019143,71.8231198 C83.5517636,86.729805 85.5192765,111.122563 85.5192765,123.125348 C73.5174478,123.125348 48.530034,120.995822 33.3801847,106.28273 C18.2303354,91.3760446 16.2628225,66.7896936 16.2628225,54.9805014 Z M153.791974,106.28273 C138.642125,121.189415 113.851462,123.125348 101.652882,123.125348 C101.652882,122.931755 101.652882,122.738162 101.652882,122.544568 C101.652882,110.541783 103.817146,86.5362117 118.966996,71.8231198 C134.116845,56.9164345 159.104259,54.9805014 171.106087,54.9805014 C170.909336,66.7896936 168.941823,91.3760446 153.791974,106.28273 Z" id="Shape"></path>
                    </g>
                    <text id="zenfit" font-family="Poppins-Bold, Poppins" font-size="80" font-weight="bold" line-spacing="80" fill="#C5576B">
                        <tspan x="0" y="212">zenfit</tspan>
                    </text>
                </g>
                <g id="black-white" transform="translate(562.000000, 97.000000)">
                    <rect id="Rectangle" fill="#000000" x="0" y="0" width="187" height="149"></rect>
                    <g id="Zenfit-Logo" transform="translate(65.000000, 25.000000)" fill="#FFFFFF">
                        <text id="zenfit" font-family="Poppins-Bold, Poppins" font-size="18" font-weight="bold" line-spacing="18" letter-spacing="0.48">
                            <tspan x="0" y="51">zenfit</tspan>
                        </text>
                        <g id="Logo" transform="translate(6.000000, 0.000000)" fill-rule="nonzero">
                            <path d="M42.9193898,10.7409471 C42.8289052,9.89415042 42.1502711,9.1810585 41.2454256,9.09192201 C40.973972,9.04735376 35.3639298,8.55710306 30.0253414,10.6518106 C27.989439,4.76880223 22.9675464,0.623955432 22.6960928,0.401114206 C22.0174587,-0.133704735 21.0221286,-0.133704735 20.3434945,0.401114206 C20.0720408,0.623955432 15.0501483,4.76880223 13.0142459,10.6518106 C7.67565745,8.55710306 2.06561533,9.04735376 1.74891941,9.09192201 C0.889316178,9.1810585 0.165439776,9.84958217 0.074955226,10.7409471 C0.0297129509,11.1866295 -0.875132552,21.2144847 5.05160549,27.0529248 C9.48534845,31.4206128 16.3621743,32 19.6648604,32 C20.6149481,32 22.3793969,32 23.2842424,32 C26.6321707,32 33.4637543,31.4206128 37.8974972,27.0529248 C43.9147198,21.1699164 42.9646321,11.1420613 42.9193898,10.7409471 Z M21.5197936,4.27855153 C23.058031,5.79387187 25.6368407,8.77994429 26.7226553,12.3454039 C26.0440212,12.8356546 25.365387,13.3259053 24.7319952,13.9498607 C23.2842424,15.3760446 22.2889123,17.0250696 21.5197936,18.718663 C20.7959172,17.0250696 19.7553449,15.3760446 18.3075921,13.9498607 C17.6742003,13.3259053 16.9955661,12.8356546 16.316932,12.3454039 C17.4027466,8.82451253 19.9815563,5.83844011 21.5197936,4.27855153 Z M3.73957951,12.6573816 C6.4993583,12.6573816 12.2451272,13.1476323 15.7287824,16.5348189 C19.2124376,19.9665738 19.6648604,25.5821727 19.6648604,28.3454039 C16.9050816,28.3454039 11.1593126,27.8551532 7.67565745,24.4679666 C4.19200226,21.0362117 3.73957951,15.3760446 3.73957951,12.6573816 Z M35.3639298,24.4679666 C31.8802746,27.8997214 26.179748,28.3454039 23.3747269,28.3454039 C23.3747269,28.3008357 23.3747269,28.2562674 23.3747269,28.2116992 C23.3747269,25.448468 23.8723919,19.9220056 27.3560471,16.5348189 C30.8397023,13.1030641 36.5854713,12.6573816 39.34525,12.6573816 C39.3000078,15.3760446 38.847585,21.0362117 35.3639298,24.4679666 Z" id="Shape"></path>
                        </g>
                    </g>
                    <g id="Logo" transform="translate(28.000000, 93.000000)" fill="#FFFFFF">
                        <path d="M42.9193898,10.7409471 C42.8289052,9.89415042 42.1502711,9.1810585 41.2454256,9.09192201 C40.973972,9.04735376 35.3639298,8.55710306 30.0253414,10.6518106 C27.989439,4.76880223 22.9675464,0.623955432 22.6960928,0.401114206 C22.0174587,-0.133704735 21.0221286,-0.133704735 20.3434945,0.401114206 C20.0720408,0.623955432 15.0501483,4.76880223 13.0142459,10.6518106 C7.67565745,8.55710306 2.06561533,9.04735376 1.74891941,9.09192201 C0.889316178,9.1810585 0.165439776,9.84958217 0.074955226,10.7409471 C0.0297129509,11.1866295 -0.875132552,21.2144847 5.05160549,27.0529248 C9.48534845,31.4206128 16.3621743,32 19.6648604,32 C20.6149481,32 22.3793969,32 23.2842424,32 C26.6321707,32 33.4637543,31.4206128 37.8974972,27.0529248 C43.9147198,21.1699164 42.9646321,11.1420613 42.9193898,10.7409471 Z M21.5197936,4.27855153 C23.058031,5.79387187 25.6368407,8.77994429 26.7226553,12.3454039 C26.0440212,12.8356546 25.365387,13.3259053 24.7319952,13.9498607 C23.2842424,15.3760446 22.2889123,17.0250696 21.5197936,18.718663 C20.7959172,17.0250696 19.7553449,15.3760446 18.3075921,13.9498607 C17.6742003,13.3259053 16.9955661,12.8356546 16.316932,12.3454039 C17.4027466,8.82451253 19.9815563,5.83844011 21.5197936,4.27855153 Z M3.73957951,12.6573816 C6.4993583,12.6573816 12.2451272,13.1476323 15.7287824,16.5348189 C19.2124376,19.9665738 19.6648604,25.5821727 19.6648604,28.3454039 C16.9050816,28.3454039 11.1593126,27.8551532 7.67565745,24.4679666 C4.19200226,21.0362117 3.73957951,15.3760446 3.73957951,12.6573816 Z M35.3639298,24.4679666 C31.8802746,27.8997214 26.179748,28.3454039 23.3747269,28.3454039 C23.3747269,28.3008357 23.3747269,28.2562674 23.3747269,28.2116992 C23.3747269,25.448468 23.8723919,19.9220056 27.3560471,16.5348189 C30.8397023,13.1030641 36.5854713,12.6573816 39.34525,12.6573816 C39.3000078,15.3760446 38.847585,21.0362117 35.3639298,24.4679666 Z" id="Shape" fill-rule="nonzero"></path>
                        <text id="zenfit" font-family="Poppins-Bold, Poppins" font-size="28" font-weight="bold" line-spacing="28">
                            <tspan x="46" y="29">zenfit</tspan>
                        </text>
                    </g>
                </g>
                <g id="white-black" transform="translate(211.000000, 97.000000)">
                    <rect id="Rectangle-Copy" stroke="#000000" stroke-width="2" fill="#FFFFFF" x="1" y="1" width="185" height="147"></rect>
                    <g id="Zenfit-Logo-Copy" transform="translate(66.000000, 25.000000)" fill="#000000">
                        <text id="zenfit" font-family="Poppins-Bold, Poppins" font-size="18" font-weight="bold" line-spacing="18" letter-spacing="0.48">
                            <tspan x="0" y="51">zenfit</tspan>
                        </text>
                        <g id="Logo" transform="translate(6.000000, 0.000000)" fill-rule="nonzero">
                            <path d="M42.9193898,10.7409471 C42.8289052,9.89415042 42.1502711,9.1810585 41.2454256,9.09192201 C40.973972,9.04735376 35.3639298,8.55710306 30.0253414,10.6518106 C27.989439,4.76880223 22.9675464,0.623955432 22.6960928,0.401114206 C22.0174587,-0.133704735 21.0221286,-0.133704735 20.3434945,0.401114206 C20.0720408,0.623955432 15.0501483,4.76880223 13.0142459,10.6518106 C7.67565745,8.55710306 2.06561533,9.04735376 1.74891941,9.09192201 C0.889316178,9.1810585 0.165439776,9.84958217 0.074955226,10.7409471 C0.0297129509,11.1866295 -0.875132552,21.2144847 5.05160549,27.0529248 C9.48534845,31.4206128 16.3621743,32 19.6648604,32 C20.6149481,32 22.3793969,32 23.2842424,32 C26.6321707,32 33.4637543,31.4206128 37.8974972,27.0529248 C43.9147198,21.1699164 42.9646321,11.1420613 42.9193898,10.7409471 Z M21.5197936,4.27855153 C23.058031,5.79387187 25.6368407,8.77994429 26.7226553,12.3454039 C26.0440212,12.8356546 25.365387,13.3259053 24.7319952,13.9498607 C23.2842424,15.3760446 22.2889123,17.0250696 21.5197936,18.718663 C20.7959172,17.0250696 19.7553449,15.3760446 18.3075921,13.9498607 C17.6742003,13.3259053 16.9955661,12.8356546 16.316932,12.3454039 C17.4027466,8.82451253 19.9815563,5.83844011 21.5197936,4.27855153 Z M3.73957951,12.6573816 C6.4993583,12.6573816 12.2451272,13.1476323 15.7287824,16.5348189 C19.2124376,19.9665738 19.6648604,25.5821727 19.6648604,28.3454039 C16.9050816,28.3454039 11.1593126,27.8551532 7.67565745,24.4679666 C4.19200226,21.0362117 3.73957951,15.3760446 3.73957951,12.6573816 Z M35.3639298,24.4679666 C31.8802746,27.8997214 26.179748,28.3454039 23.3747269,28.3454039 C23.3747269,28.3008357 23.3747269,28.2562674 23.3747269,28.2116992 C23.3747269,25.448468 23.8723919,19.9220056 27.3560471,16.5348189 C30.8397023,13.1030641 36.5854713,12.6573816 39.34525,12.6573816 C39.3000078,15.3760446 38.847585,21.0362117 35.3639298,24.4679666 Z" id="Shape"></path>
                        </g>
                    </g>
                    <g id="Logo-Copy-4" transform="translate(28.000000, 93.000000)">
                        <path d="M42.9193898,10.7409471 C42.8289052,9.89415042 42.1502711,9.1810585 41.2454256,9.09192201 C40.973972,9.04735376 35.3639298,8.55710306 30.0253414,10.6518106 C27.989439,4.76880223 22.9675464,0.623955432 22.6960928,0.401114206 C22.0174587,-0.133704735 21.0221286,-0.133704735 20.3434945,0.401114206 C20.0720408,0.623955432 15.0501483,4.76880223 13.0142459,10.6518106 C7.67565745,8.55710306 2.06561533,9.04735376 1.74891941,9.09192201 C0.889316178,9.1810585 0.165439776,9.84958217 0.074955226,10.7409471 C0.0297129509,11.1866295 -0.875132552,21.2144847 5.05160549,27.0529248 C9.48534845,31.4206128 16.3621743,32 19.6648604,32 C20.6149481,32 22.3793969,32 23.2842424,32 C26.6321707,32 33.4637543,31.4206128 37.8974972,27.0529248 C43.9147198,21.1699164 42.9646321,11.1420613 42.9193898,10.7409471 Z M21.5197936,4.27855153 C23.058031,5.79387187 25.6368407,8.77994429 26.7226553,12.3454039 C26.0440212,12.8356546 25.365387,13.3259053 24.7319952,13.9498607 C23.2842424,15.3760446 22.2889123,17.0250696 21.5197936,18.718663 C20.7959172,17.0250696 19.7553449,15.3760446 18.3075921,13.9498607 C17.6742003,13.3259053 16.9955661,12.8356546 16.316932,12.3454039 C17.4027466,8.82451253 19.9815563,5.83844011 21.5197936,4.27855153 Z M3.73957951,12.6573816 C6.4993583,12.6573816 12.2451272,13.1476323 15.7287824,16.5348189 C19.2124376,19.9665738 19.6648604,25.5821727 19.6648604,28.3454039 C16.9050816,28.3454039 11.1593126,27.8551532 7.67565745,24.4679666 C4.19200226,21.0362117 3.73957951,15.3760446 3.73957951,12.6573816 Z M35.3639298,24.4679666 C31.8802746,27.8997214 26.179748,28.3454039 23.3747269,28.3454039 C23.3747269,28.3008357 23.3747269,28.2562674 23.3747269,28.2116992 C23.3747269,25.448468 23.8723919,19.9220056 27.3560471,16.5348189 C30.8397023,13.1030641 36.5854713,12.6573816 39.34525,12.6573816 C39.3000078,15.3760446 38.847585,21.0362117 35.3639298,24.4679666 Z" id="Shape" fill="#000000" fill-rule="nonzero"></path>
                        <text id="zenfit" font-family="Poppins-Bold, Poppins" font-size="28" font-weight="bold" line-spacing="28" fill="#151515">
                            <tspan x="46" y="29">zenfit</tspan>
                        </text>
                    </g>
                </g>
                <g id="App-Icon" transform="translate(418.000000, 925.000000)">
                    <rect id="Rectangle" fill="url(#linearGradient-2)" x="0" y="0" width="128" height="128" rx="28"></rect>
                    <g id="Logo-Copy" transform="translate(18.000000, 29.000000)" fill="#FFFFFF" fill-rule="nonzero">
                        <path d="M92.825657,23.4958217 C92.6299578,21.643454 91.1622143,20.0835655 89.2052228,19.8885794 C88.6181254,19.7910864 76.4847785,18.718663 64.938529,23.3008357 C60.5352983,10.4317549 49.6739958,1.36490251 49.0868984,0.877437326 C47.6191548,-0.292479109 45.4664642,-0.292479109 43.9987206,0.877437326 C43.4116232,1.36490251 32.5503207,10.4317549 28.14709,23.3008357 C16.6008405,18.718663 4.46749363,19.7910864 3.78254662,19.8885794 C1.92340476,20.0835655 0.357811609,21.545961 0.162112466,23.4958217 C0.0642628937,24.4707521 -1.89272854,46.4066852 10.9255654,59.178273 C20.5148234,68.7325905 35.3879583,70 42.5309771,70 C44.5858181,70 48.4019514,70 50.3589428,70 C57.5998111,70 72.3750965,68.7325905 81.9643545,59.178273 C94.9783476,46.3091922 92.9235065,24.3732591 92.825657,23.4958217 Z M46.5428095,9.35933148 C49.8696949,12.6740947 55.4471205,19.2061281 57.7955103,27.005571 C56.3277667,28.0779944 54.8600231,29.1504178 53.4901291,30.5153203 C50.3589428,33.6350975 48.2062522,37.2423398 46.5428095,40.9470752 C44.9772164,37.2423398 42.7266762,33.6350975 39.5954899,30.5153203 C38.2255959,29.1504178 36.7578523,28.0779944 35.2901087,27.005571 C37.6384985,19.3036212 43.2159241,12.7715877 46.5428095,9.35933148 Z M8.08792778,27.6880223 C14.0567517,27.6880223 26.4836473,28.7604457 34.0180643,36.1699164 C41.5524813,43.6768802 42.5309771,55.9610028 42.5309771,62.005571 C36.5621532,62.005571 24.1352576,60.9331476 16.6008405,53.5236769 C9.0664235,46.0167131 8.08792778,33.6350975 8.08792778,27.6880223 Z M76.4847785,53.5236769 C68.9503614,61.0306407 56.6213154,62.005571 50.5546419,62.005571 C50.5546419,61.908078 50.5546419,61.810585 50.5546419,61.7130919 C50.5546419,55.6685237 51.6309872,43.5793872 59.1654043,36.1699164 C66.6998213,28.6629526 79.1267169,27.6880223 85.0955408,27.6880223 C84.9976912,33.6350975 84.0191955,46.0167131 76.4847785,53.5236769 Z" id="Shape"></path>
                    </g>
                </g>
            </g>
        </g>
    </g>
</svg>