<svg width="200" height="192" viewBox="0 0 200 192" fill="none" xmlns="http://www.w3.org/2000/svg">
<path fill-rule="evenodd" clip-rule="evenodd" d="M96.1002 12.5C98.0002 10.5 101.2 10.5 103.1 12.5L181.7 92.9C183.6 94.9 183.6 98.1 181.7 100.1L103.1 180.5C101.2 182.5 98.0002 182.5 96.1002 180.5L17.5002 100.1C15.6002 98.1 15.6002 94.9 17.5002 92.9L96.1002 12.5ZM98.8002 23.4L29.5002 95.1C29.0002 95.6 29.0002 96.4 29.5002 96.9L98.8002 168.7C99.3002 169.2 100 169.2 100.5 168.7L169.8 96.9C170.3 96.4 170.3 95.6 169.8 95.1L100.5 23.3C100 22.9 99.3002 22.9 98.8002 23.4Z" fill="black"/>
<path fill-rule="evenodd" clip-rule="evenodd" d="M100 114C82.9 114 69 100.1 69 83C69 65.9 82.9 52 100 52C117.1 52 131 65.9 131 83C131 100.1 117.1 114 100 114ZM100 105C112.2 105 122 95.2 122 83C122 70.8 112.2 61 100 61C87.8 61 78 70.8 78 83C78 95.2 87.8 105 100 105Z" fill="#FFB650"/>
<path fill-rule="evenodd" clip-rule="evenodd" d="M90.5 117H109.5C111.4 117 113 118.6 113 120.5C113 122.4 111.4 124 109.5 124H90.5C88.6 124 87 122.4 87 120.5C87 118.6 88.6 117 90.5 117ZM90.5 127H109.5C111.4 127 113 128.6 113 130.5C113 132.4 111.4 134 109.5 134H90.5C88.6 134 87 132.4 87 130.5C87 128.6 88.6 127 90.5 127ZM96.5 137H103.5C105.4 137 107 138.6 107 140.5C107 142.4 105.4 144 103.5 144H96.5C94.6 144 93 142.4 93 140.5C93 138.6 94.6 137 96.5 137Z" fill="black"/>
<path fill-rule="evenodd" clip-rule="evenodd" d="M105.2 69.1999C107 67.9999 109.5 68.4999 110.7 70.3999L115.7 77.9999C116.9 79.7999 116.4 82.2999 114.5 83.4999C112.7 84.6999 110.2 84.1999 109 82.2999L104 74.6999C102.9 72.7999 103.4 70.2999 105.2 69.1999Z" fill="#FFB650"/>
</svg>
