<?xml version="1.0" encoding="utf-8"?>
<!-- Generator: Adobe Illustrator 24.0.1, SVG Export Plug-In . SVG Version: 6.00 Build 0)  -->
<svg version="1.1" id="Layer_1" xmlns="http://www.w3.org/2000/svg" xmlns:xlink="http://www.w3.org/1999/xlink" x="0px" y="0px"
	 viewBox="0 0 200 192" style="enable-background:new 0 0 200 192;" xml:space="preserve">
<style type="text/css">
	.st0{fill-rule:evenodd;clip-rule:evenodd;}
</style>
<title>UX Ideation</title>
<desc>Created with Sketch.</desc>
<g>
	<g>
		<path class="st0" d="M96.1,12.5c1.9-2,5.1-2,7,0l78.6,80.4c1.9,2,1.9,5.2,0,7.2l-78.6,80.4c-1.9,2-5.1,2-7,0l-78.6-80.4
			c-1.9-2-1.9-5.2,0-7.2L96.1,12.5z M98.8,23.4L29.5,95.1c-0.5,0.5-0.5,1.3,0,1.8l69.3,71.8c0.5,0.5,1.2,0.5,1.7,0l69.3-71.8
			c0.5-0.5,0.5-1.3,0-1.8l-69.3-71.8C100,22.9,99.3,22.9,98.8,23.4z"/>
		<path class="st0" d="M100,114c-17.1,0-31-13.9-31-31s13.9-31,31-31s31,13.9,31,31S117.1,114,100,114z M100,105
			c12.2,0,22-9.8,22-22s-9.8-22-22-22s-22,9.8-22,22S87.8,105,100,105z"/>
		<path class="st0" d="M90.5,117h19c1.9,0,3.5,1.6,3.5,3.5s-1.6,3.5-3.5,3.5h-19c-1.9,0-3.5-1.6-3.5-3.5S88.6,117,90.5,117z
			 M90.5,127h19c1.9,0,3.5,1.6,3.5,3.5s-1.6,3.5-3.5,3.5h-19c-1.9,0-3.5-1.6-3.5-3.5S88.6,127,90.5,127z M96.5,137h7
			c1.9,0,3.5,1.6,3.5,3.5s-1.6,3.5-3.5,3.5h-7c-1.9,0-3.5-1.6-3.5-3.5S94.6,137,96.5,137z"/>
		<path class="st0" d="M105.2,69.2L105.2,69.2c1.8-1.2,4.3-0.7,5.5,1.2l5,7.6c1.2,1.8,0.7,4.3-1.2,5.5l0,0c-1.8,1.2-4.3,0.7-5.5-1.2
			l-5-7.6C102.9,72.8,103.4,70.3,105.2,69.2z"/>
	</g>
</g>
</svg>
