<svg width="200" height="199" viewBox="0 0 200 199" fill="none" xmlns="http://www.w3.org/2000/svg">
<path fill-rule="evenodd" clip-rule="evenodd" d="M162.5 119.7L151.5 115.8L169.8 96.9001C170.3 96.4001 170.3 95.6001 169.8 95.1001L100.5 23.3001C100 22.8001 99.3002 22.8001 98.8002 23.3001L29.5002 95.1001C29.0002 95.6001 29.0002 96.4001 29.5002 96.9001L98.8002 168.7C99.3002 169.2 100 169.2 100.5 168.7L118.2 150.4L123.1 160.1L103.1 180.6C101.2 182.6 98.0002 182.6 96.1002 180.6L17.5002 100.2C15.6002 98.2001 15.6002 95.0001 17.5002 93.0001L96.1002 12.6001C98.0002 10.6001 101.2 10.6001 103.1 12.6001L181.7 93.0001C183.6 95.0001 183.6 98.2001 181.7 100.2L162.5 119.7Z" fill="black"/>
<path fill-rule="evenodd" clip-rule="evenodd" d="M153.3 143.2L169.7 153.6C170.2 153.9 170.3 154.5 170 155C170 155.1 169.9 155.1 169.9 155.2L158.9 166.2C158.5 166.6 157.9 166.6 157.5 166.2C157.4 166.1 157.4 166.1 157.4 166L147 149.5L138.1 163.2C137.5 164.1 136.3 164.4 135.3 163.8C135 163.6 134.7 163.3 134.6 162.9L112.6 114.8C111.7 112.8 112.6 110.4 114.6 109.5C115.7 109 116.9 109 117.9 109.5L165.9 131.4C166.9 131.9 167.3 133 166.9 134.1C166.7 134.5 166.5 134.8 166.1 135L153.3 143.2ZM126.1 123L136.9 147.9C138.7 144.8 140.8 142.1 143.2 139.7C145.6 137.3 148.3 135.3 151.2 133.6L126.1 123Z" fill="black"/>
<path fill-rule="evenodd" clip-rule="evenodd" d="M58.7998 111.7L115.7 54.8001C117.3 53.2001 119.8 53.2001 121.4 54.8001L122.8 56.2001C124.4 57.8001 124.4 60.3001 122.8 61.9001L65.8998 118.8C64.2998 120.4 61.7998 120.4 60.1998 118.8L58.7998 117.4C57.2998 115.8 57.2998 113.3 58.7998 111.7Z" fill="#FFB650"/>
<path d="M101 53C104.866 53 108 49.866 108 46C108 42.134 104.866 39 101 39C97.134 39 94 42.134 94 46C94 49.866 97.134 53 101 53Z" fill="#FFB650"/>
</svg>
