<?xml version="1.0" encoding="UTF-8"?>
<svg width="142px" height="142px" viewBox="0 0 142 142" version="1.1" xmlns="http://www.w3.org/2000/svg" xmlns:xlink="http://www.w3.org/1999/xlink">
    <title>Search</title>
    <g id="Redesigns" stroke="none" stroke-width="1" fill="none" fill-rule="evenodd">
        <g id="Artboard" transform="translate(-5684.000000, -5397.000000)">
            <g id="Search" transform="translate(5684.000000, 5397.000000)">
                <rect id="Rectangle" fill="#FFFFFF" x="0" y="0" width="142" height="142"></rect>
                <path d="M68.2673204,50.447876 C73.1735484,50.447876 77.6152717,52.4394315 80.8304593,55.6592413 C84.0459068,58.8793113 86.0346409,63.3278135 86.0346409,68.2414576 C86.0346409,72.3851936 84.620388,76.1981783 82.2486497,79.2225173 L81.9908918,79.5435149 L90.2935283,87.5737528 L86.7577855,91.2403853 L78.2194227,82.9838862 C75.3802296,84.9100904 71.954943,86.0350393 68.2673204,86.0350393 C63.3610924,86.0350393 58.9193692,84.0434837 55.7041815,80.8236739 C52.4887341,77.603604 50.5,73.1551018 50.5,68.2414576 C50.5,63.3278135 52.4887341,58.8793113 55.7041815,55.6592413 C58.9193692,52.4394315 63.3610924,50.447876 68.2673204,50.447876 Z M68.2673204,55.5457365 C64.7662464,55.5457365 61.5965861,56.9668124 59.3022158,59.2644812 C57.0081052,61.5618898 55.5891068,64.7357133 55.5891068,68.2414576 C55.5891068,71.747202 57.0081052,74.9210255 59.3022158,77.2184341 C61.5965861,79.5161029 64.7662464,80.9371787 68.2673204,80.9371787 C71.7683945,80.9371787 74.9380548,79.5161029 77.2324251,77.2184341 C79.5265357,74.9210255 80.9455341,71.747202 80.9455341,68.2414576 C80.9455341,64.7357133 79.5265357,61.5618898 77.2324251,59.2644812 C74.9380548,56.9668124 71.7683945,55.5457365 68.2673204,55.5457365 Z" id="Search-Icon-Copy" stroke="#000000" fill="#000000"></path>
            </g>
        </g>
    </g>
</svg>