<?xml version="1.0" encoding="UTF-8"?>
<svg width="467px" height="467px" viewBox="0 0 467 467" version="1.1" xmlns="http://www.w3.org/2000/svg" xmlns:xlink="http://www.w3.org/1999/xlink">
    <title>tired-tile</title>
    <g id="Case-Study-Assets" stroke="none" stroke-width="1" fill="none" fill-rule="evenodd">
        <g id="Custom-Preset" transform="translate(-267.000000, -3053.000000)">
            <g id="tired-tile" transform="translate(267.000000, 3053.000000)">
                <rect id="Rectangle-Copy-3" fill="#FFFFFF" x="0" y="0" width="467" height="467"></rect>
                <g id="noun_sleeping_2262952" transform="translate(125.000000, 154.000000)" fill="#000000" fill-rule="nonzero">
                    <path d="M142.99724,20.2710077 C129.115085,16.6382738 111.282378,14.6543779 92.78275,14.6543779 C74.2831219,14.6543779 56.450415,16.6382738 42.5767559,20.2710077 C26.7108292,24.4195545 18.996633,29.7496215 18.996633,36.5830408 C18.996633,43.4164601 26.5748962,48.0455506 42.844374,51.1624715 C55.6560567,53.6092765 73.3910618,54.9539171 92.7912458,54.9539171 C112.19143,54.9539171 129.926435,53.6092765 142.738118,51.1624715 C159.007595,48.0764112 166.585859,43.4208688 166.585859,36.5830408 C166.585859,29.7452129 158.863167,24.4195545 142.99724,20.2710077 Z" id="Path"></path>
                    <path d="M215.406115,66.6528493 C213.01069,57.0769231 205.777613,50.7414022 194.489758,48.3375145 C191.120587,47.6405226 187.692922,47.2909969 184.257082,47.2940688 C184.925078,38.7836019 184.822964,33.3638478 184.814454,33.0996843 L184.814454,33.0996843 C184.771907,26.1874065 179.708753,16.3693305 156.026807,8.63374315 C138.973765,3.06429639 116.381036,0 92.4140222,0 C68.4470087,0 45.8542798,3.06429639 28.8012369,8.61613225 C5.11078223,16.3737332 0.0561377952,26.1874065 0.00508078078,33.0996843 L0.00508078078,33.0996843 C0.00508078078,33.7644958 -0.288497052,49.6010965 3.5875813,70.0253364 C7.19986507,89.0363017 15.2668734,115.681592 33.1921402,134.644127 C48.4752065,150.806529 68.4002064,159 92.4055127,159 C122.065383,159 145.258032,146.645954 161.370775,122.285679 C169.454802,121.559229 197.599982,117.768483 210.496132,99.6864928 C216.971864,90.6212826 218.618452,79.5 215.406115,66.6528493 Z M203.671511,94.4384449 C191.260402,111.864429 159.132776,113.634325 158.809415,113.651936 C158.751342,113.647602 158.693043,113.647602 158.63497,113.651936 C158.583913,113.651936 158.537111,113.651936 158.490308,113.651936 C158.443506,113.651936 158.29459,113.678352 158.196731,113.700366 L158.094617,113.722379 C157.988248,113.744393 157.886134,113.775212 157.78402,113.806031 L157.707434,113.828045 C157.601065,113.863266 157.494697,113.902891 157.392583,113.946918 L157.324507,113.977737 C157.222393,114.021764 157.124533,114.070194 157.026674,114.123027 L156.950088,114.167054 C156.856484,114.219887 156.767134,114.277122 156.677784,114.338761 L156.592689,114.395996 L156.345914,114.585313 L156.260819,114.660159 C156.179979,114.730603 156.107648,114.801047 156.035317,114.87149 L155.958731,114.950739 C155.882146,115.034391 155.80556,115.118043 155.737484,115.206097 L155.686427,115.272138 C155.606562,115.37155 155.532674,115.475944 155.46518,115.584732 L155.46518,115.611148 C140.999026,138.540538 119.772072,150.163732 92.4310412,150.163732 C70.8126503,150.163732 52.9426953,142.868417 39.3232367,128.480312 C22.8701138,111.151188 15.3732421,86.3154178 11.9822054,68.5372155 C8.25078862,49.002326 8.51458319,33.4430969 8.51458319,33.2713906 L8.51458319,33.1745307 C8.51458319,22.9910284 40.4252172,8.78783851 92.4097675,8.78783851 C144.394318,8.78783851 176.304952,22.9910284 176.304952,33.1745307 L176.304952,33.2713906 C176.310175,39.3392715 175.98488,45.4026341 175.330614,51.43263 L175.330614,51.4634491 C175.330614,51.560309 175.330614,51.657169 175.330614,51.7496262 C175.330614,51.8420834 175.330614,51.864097 175.330614,51.9213324 C175.330614,51.9785679 175.330614,52.0666224 175.330614,52.137066 C175.330614,52.2075096 175.330614,52.2999668 175.330614,52.3836185 C175.328533,52.3952605 175.328533,52.4071984 175.330614,52.4188403 C175.32823,52.4628331 175.32823,52.5069294 175.330614,52.5509221 C175.330614,52.6433793 175.356142,52.7314338 175.373161,52.8194883 C175.39018,52.9075428 175.402944,52.9383619 175.415709,53 L175.47953,53.2333444 C175.500804,53.303788 175.526332,53.3698289 175.551861,53.4358697 C175.577389,53.5019106 175.598663,53.5679515 175.624192,53.6339924 C175.64972,53.7000332 175.688013,53.7748795 175.717796,53.8409204 L175.802891,54.0126267 C175.841184,54.0830703 175.879477,54.1491111 175.922024,54.215152 C175.964572,54.2811929 175.985845,54.3252201 176.019883,54.3780528 L176.147526,54.5585645 C176.190073,54.6158 176.228366,54.6686327 176.270914,54.7170626 C176.313461,54.7654926 176.356009,54.822728 176.402811,54.871158 C176.449156,54.9285842 176.498889,54.9829884 176.551727,55.0340588 L176.683625,55.1617378 L176.862324,55.3246386 L176.989967,55.4214986 L177.194195,55.575594 L177.326092,55.6592457 L177.547339,55.7913275 L177.696255,55.8661738 L177.913248,55.9674365 L178.104711,56.0422828 L178.296175,56.1083236 C178.375767,56.134984 178.456733,56.1570318 178.538696,56.1743645 L178.696122,56.213989 L178.976935,56.2580163 L179.083304,56.2580163 L179.117342,56.2580163 L179.41092,56.2580163 L179.538563,56.2580163 L179.572601,56.2580163 L179.717262,56.2580163 C179.815121,56.2580163 179.908726,56.2580163 180.006585,56.2360027 L180.036369,56.2360027 C180.27038,56.2051836 203.314112,53.5371324 207.134879,68.8057817 C209.764315,79.1521847 208.598513,87.5217644 203.671511,94.4384449 Z" id="Shape"></path>
                    <path d="M186.538848,63.2347046 C183.385331,62.8676991 180.198537,62.9583891 177.068701,63.5042067 L177.039173,63.5042067 L176.739672,63.5793138 L176.621559,63.6146584 L176.372677,63.7030197 L176.216599,63.7648726 L176.035211,63.853234 L175.83695,63.9548495 L175.714618,64.0299566 L175.495265,64.189007 L175.398243,64.2685322 L175.170454,64.4452549 C175.132489,64.4761813 175.098742,64.5159439 175.060777,64.5512885 C175.022812,64.586633 174.934227,64.6661582 174.875171,64.7280111 C174.824139,64.7792986 174.776237,64.8338958 174.731748,64.8914796 L174.605198,65.0372758 L174.453338,65.2449249 L174.364753,65.3730489 C174.318351,65.4437379 174.276168,65.518845 174.233985,65.5939522 C174.191802,65.6690593 174.174928,65.6911496 174.149618,65.7397484 C174.124308,65.7883471 174.090562,65.8722904 174.056815,65.9385614 L173.96823,66.1373744 C173.947425,66.1893981 173.929122,66.2424815 173.913392,66.2964248 C173.879471,66.3816066 173.849901,66.4686182 173.824807,66.5570907 C173.824807,66.5968533 173.824807,66.6366159 173.79106,66.6807966 C173.757314,66.7249772 173.74044,66.8884457 173.719349,66.9944793 C173.720734,67.0047371 173.720734,67.0151479 173.719349,67.0254057 C172.028195,76.5644851 169.506349,85.9212755 166.185415,94.9785129 C166.178122,95.0088346 166.16824,95.0384075 166.155887,95.0668742 C165.972018,95.5543316 165.870668,96.0716209 165.856385,96.5955253 C165.802163,99.0341228 167.645148,101.057326 169.973473,101.115207 L170.433271,101.115207 C173.742696,101.092309 177.043977,100.768575 180.299941,100.147651 C188.175559,98.6234178 193.916704,95.5572796 197.363078,91.0375975 C199.750652,87.9140245 202.17619,82.4577123 200.197794,74.2224362 C198.72138,68.0769056 193.874521,64.189007 186.538848,63.2347046 Z M190.778268,85.5150143 C187.791691,89.4426755 181.371396,91.1922299 176.212381,91.8858663 C178.31175,85.3388459 180.034511,78.6659063 181.371396,71.9029512 C184.978067,71.6997202 190.976529,72.0443294 192.018456,76.3740346 C192.938052,80.2177525 192.533092,83.2087836 190.778268,85.5150143 Z" id="Shape"></path>
                    <path d="M67.344406,86.4608295 L53.2111495,86.4608295 C50.8593622,86.4608295 48.952862,88.429126 48.952862,90.8571429 C48.952862,93.2851597 50.8593622,95.2534562 53.2111495,95.2534562 L67.344406,95.2534562 C69.6961933,95.2534562 71.6026936,93.2851597 71.6026936,90.8571429 C71.6026936,88.429126 69.6961933,86.4608295 67.344406,86.4608295 L67.344406,86.4608295 Z" id="Path"></path>
                    <path d="M129.448783,86.4608295 L115.315527,86.4608295 C112.963739,86.4608295 111.057239,88.429126 111.057239,90.8571429 C111.057239,93.2851597 112.963739,95.2534562 115.315527,95.2534562 L129.448783,95.2534562 C131.80057,95.2534562 133.707071,93.2851597 133.707071,90.8571429 C133.707071,88.429126 131.80057,86.4608295 129.448783,86.4608295 L129.448783,86.4608295 Z" id="Path"></path>
                    <path d="M90.969083,103.313364 C85.2058323,103.311605 80.0091967,106.881333 77.802906,112.357613 C75.5966152,117.833893 76.8152821,124.137965 80.8905159,128.329586 C84.9657498,132.521207 91.0947784,133.774679 96.4190007,131.505377 C101.743223,129.236076 105.213831,123.891026 105.212121,117.963179 C105.202799,109.876284 98.8314313,103.322952 90.969083,103.313364 Z" id="Path"></path>
                </g>
                <text id="Reduced-Activity-Dur" font-family="HelveticaNeue-Bold, Helvetica Neue" font-size="30" font-weight="bold" fill="#000000">
                    <tspan x="112.175" y="78">Reduced Activity </tspan>
                    <tspan x="109.7" y="114">During Pandemic</tspan>
                </text>
                <text id="Insight:-It’s-harder" font-family="HelveticaNeue-Bold, Helvetica Neue" font-size="20" font-weight="bold" fill="#000000">
                    <tspan x="73.5" y="366">Insight</tspan>
                    <tspan x="138.28" y="366" font-family="HelveticaNeue-Medium, Helvetica Neue" font-weight="400">: </tspan>
                    <tspan x="149.4" y="366" font-family="HelveticaNeue, Helvetica Neue" font-weight="normal">It’s harder for people to get </tspan>
                    <tspan x="72.35" y="390" font-family="HelveticaNeue, Helvetica Neue" font-weight="normal">motivated when they are at home or </tspan>
                    <tspan x="206.46" y="413" font-family="HelveticaNeue, Helvetica Neue" font-weight="normal">alone.</tspan>
                </text>
            </g>
        </g>
    </g>
</svg>