<?xml version="1.0" encoding="utf-8"?>
<!-- Generator: Adobe Illustrator 24.0.1, SVG Export Plug-In . SVG Version: 6.00 Build 0)  -->
<svg version="1.1" id="Layer_1" xmlns="http://www.w3.org/2000/svg" xmlns:xlink="http://www.w3.org/1999/xlink" x="0px" y="0px"
	 viewBox="0 0 200 192" style="enable-background:new 0 0 200 192;" xml:space="preserve">
<style type="text/css">
	.st0{fill-rule:evenodd;clip-rule:evenodd;}
</style>
<title>UX synthesis</title>
<desc>Created with Sketch.</desc>
<g>
	<g>
		<path class="st0" d="M96.1,12.5c1.9-2,5.1-2,7,0l78.6,80.4c1.9,2,1.9,5.2,0,7.2l-78.6,80.4c-1.9,2-5.1,2-7,0l-78.6-80.4
			c-1.9-2-1.9-5.2,0-7.2L96.1,12.5z M98.8,23.4L29.5,95.1c-0.5,0.5-0.5,1.3,0,1.8l69.3,71.8c0.5,0.5,1.2,0.5,1.7,0l69.3-71.8
			c0.5-0.5,0.5-1.3,0-1.8l-69.3-71.8C100,22.9,99.3,22.9,98.8,23.4z"/>
		<path class="st0" d="M107,75.3c-2.1,1.1-4.5,1.7-7,1.7c-2.4,0-4.6-0.5-6.6-1.5L78.5,90.4c1,2,1.5,4.2,1.5,6.6c0,8.3-6.7,15-15,15
			s-15-6.7-15-15s6.7-15,15-15c2.3,0,4.4,0.5,6.4,1.4l15.1-15.1C85.5,66.4,85,64.3,85,62c0-8.3,6.7-15,15-15s15,6.7,15,15
			c0,2.1-0.4,4.1-1.2,5.9l15.7,15.1c1.7-0.7,3.6-1.1,5.5-1.1c8.3,0,15,6.7,15,15s-6.7,15-15,15s-15-6.7-15-15c0-2.7,0.7-5.2,1.9-7.3
			L107,75.3z M135,102c2.8,0,5-2.2,5-5s-2.2-5-5-5s-5,2.2-5,5S132.2,102,135,102z M100,67c2.8,0,5-2.2,5-5c0-2.8-2.2-5-5-5
			s-5,2.2-5,5C95,64.8,97.2,67,100,67z M65,102c2.8,0,5-2.2,5-5s-2.2-5-5-5c-2.8,0-5,2.2-5,5S62.2,102,65,102z"/>
	</g>
</g>
</svg>
