<?xml version="1.0" encoding="utf-8"?>
<!-- Generator: Adobe Illustrator 24.0.1, SVG Export Plug-In . SVG Version: 6.00 Build 0)  -->
<svg version="1.1" id="Layer_1" xmlns="http://www.w3.org/2000/svg" xmlns:xlink="http://www.w3.org/1999/xlink" x="0px" y="0px"
	 viewBox="0 0 200 181" style="enable-background:new 0 0 200 181;" xml:space="preserve">
<style type="text/css">
	.st0{fill-rule:evenodd;clip-rule:evenodd;}
</style>
<title>UX - Users</title>
<desc>Created with Sketch.</desc>
<g>
	<g>
		<path class="st0" d="M101.1,66.9l35.3,36.1c1.4,1.4,1.4,3.7,0,5.1l-56.2,57.5c-1.4,1.4-3.6,1.4-5,0L19,108.1
			c-1.4-1.4-1.4-3.7,0-5.1L55.3,66l5.4,6l-32,32.8c-0.3,0.3-0.3,0.9,0,1.2l48.2,49.3c0.3,0.3,0.9,0.3,1.2,0l48.2-49.3
			c0.3-0.3,0.3-0.9,0-1.2L95.3,73L101.1,66.9z"/>
		<path class="st0" d="M118.1,121.1l5.3-5.6l18.7,19.2c0.2,0.2,0.5,0.2,0.7,0l30.1-30.9c0.2-0.2,0.2-0.5,0-0.8l-20.5-21l5.2-5.4
			l24.6,25.2c0.9,1,0.9,2.5,0,3.5l-38.1,39c-0.9,1-2.5,1-3.4,0L118.1,121.1z M115.8,88.4L127.9,76l5,5.6L121,93.8L115.8,88.4z"/>
		<path class="st0" d="M79,79c-17.7,0-32-14.3-32-32s14.3-32,32-32s32,14.3,32,32S96.7,79,79,79z M79,71c13.3,0,24-10.7,24-24
			S92.3,23,79,23S55,33.7,55,47S65.7,71,79,71z"/>
		<path class="st0" d="M141.5,86c-11.9,0-21.5-9.6-21.5-21.5S129.6,43,141.5,43S163,52.6,163,64.5S153.4,86,141.5,86z M141.5,79
			c8,0,14.5-6.5,14.5-14.5S149.5,50,141.5,50S127,56.5,127,64.5S133.5,79,141.5,79z"/>
	</g>
</g>
</svg>
