<svg width="200" height="181" viewBox="0 0 200 181" fill="none" xmlns="http://www.w3.org/2000/svg">
<path fill-rule="evenodd" clip-rule="evenodd" d="M118.1 121.1L123.4 115.5L142.1 134.7C142.3 134.9 142.6 134.9 142.8 134.7L172.9 103.8C173.1 103.6 173.1 103.3 172.9 103L152.4 82L157.6 76.6L182.2 101.8C183.1 102.8 183.1 104.3 182.2 105.3L144.1 144.3C143.2 145.3 141.6 145.3 140.7 144.3L118.1 121.1ZM115.8 88.4L127.9 76L132.9 81.6L121 93.8L115.8 88.4Z" fill="black"/>
<path fill-rule="evenodd" clip-rule="evenodd" d="M101.1 66.9L136.4 103C137.8 104.4 137.8 106.7 136.4 108.1L80.2002 165.6C78.8002 167 76.6002 167 75.2002 165.6L19.0002 108.1C17.6002 106.7 17.6002 104.4 19.0002 103L55.3002 66L60.7002 72L28.7002 104.8C28.4002 105.1 28.4002 105.7 28.7002 106L76.9002 155.3C77.2002 155.6 77.8002 155.6 78.1002 155.3L126.3 106C126.6 105.7 126.6 105.1 126.3 104.8L95.3002 73L101.1 66.9Z" fill="black"/>
<path fill-rule="evenodd" clip-rule="evenodd" d="M79 79C61.3 79 47 64.7 47 47C47 29.3 61.3 15 79 15C96.7 15 111 29.3 111 47C111 64.7 96.7 79 79 79ZM79 71C92.3 71 103 60.3 103 47C103 33.7 92.3 23 79 23C65.7 23 55 33.7 55 47C55 60.3 65.7 71 79 71Z" fill="black"/>
<path fill-rule="evenodd" clip-rule="evenodd" d="M141.5 86C129.6 86 120 76.4 120 64.5C120 52.6 129.6 43 141.5 43C153.4 43 163 52.6 163 64.5C163 76.4 153.4 86 141.5 86ZM141.5 79C149.5 79 156 72.5 156 64.5C156 56.5 149.5 50 141.5 50C133.5 50 127 56.5 127 64.5C127 72.5 133.5 79 141.5 79Z" fill="#FFB650"/>
</svg>
